<?xml version="1.0" standalone="no"?>
<!DOCTYPE svg PUBLIC "-//W3C//DTD SVG 20010904//EN"
 "http://www.w3.org/TR/2001/REC-SVG-20010904/DTD/svg10.dtd">
<svg version="1.0" xmlns="http://www.w3.org/2000/svg"
 width="3473.000000pt" height="3473.000000pt" viewBox="0 0 3473.000000 3473.000000"
 preserveAspectRatio="xMidYMid meet">

<g transform="translate(0.000000,3473.000000) scale(0.100000,-0.100000)"
fill="#000000" stroke="none">
<path d="M20284 30524 c-29 -15 -217 -190 -223 -208 -4 -13 -24 -37 -75 -88
-20 -20 -36 -41 -36 -47 0 -5 -10 -17 -22 -26 -13 -8 -23 -19 -23 -24 0 -9
-13 -25 -67 -81 -16 -15 -28 -32 -28 -37 0 -5 -20 -31 -45 -56 -25 -26 -45
-51 -45 -55 0 -5 -20 -30 -45 -55 -25 -26 -45 -51 -45 -55 0 -5 -20 -30 -45
-55 -25 -26 -45 -52 -45 -57 0 -5 -11 -17 -25 -26 -14 -9 -23 -20 -20 -24 3
-5 -3 -15 -13 -22 -9 -7 -25 -24 -33 -38 -9 -14 -31 -41 -50 -60 -18 -19 -32
-38 -31 -42 1 -4 -9 -15 -23 -24 -14 -9 -25 -21 -25 -27 0 -11 -12 -25 -67
-82 -18 -19 -33 -38 -33 -44 0 -6 -11 -18 -25 -27 -14 -9 -25 -21 -25 -28 0
-6 -19 -31 -42 -56 -23 -25 -42 -48 -43 -51 0 -8 -63 -85 -94 -115 -13 -13
-21 -24 -17 -24 10 0 -70 -99 -98 -122 -12 -10 -17 -18 -13 -18 8 0 -41 -64
-90 -120 -8 -8 -30 -36 -50 -62 -19 -27 -40 -48 -45 -48 -5 0 -12 -9 -16 -19
-8 -22 -71 -99 -122 -150 -19 -19 -34 -38 -33 -42 2 -5 -13 -20 -32 -35 -19
-14 -35 -32 -35 -40 0 -7 -22 -32 -50 -55 -27 -23 -50 -48 -50 -55 0 -6 -25
-35 -56 -64 -118 -107 -141 -63 -199 370 -31 235 -61 375 -120 575 -42 138
-146 440 -163 471 -5 9 -19 2 -49 -27 -23 -21 -40 -39 -38 -39 2 0 -21 -35
-51 -77 -31 -43 -62 -90 -70 -105 -8 -16 -19 -28 -25 -28 -6 0 -7 -5 -4 -10 3
-6 -1 -13 -9 -16 -9 -3 -14 -9 -11 -14 2 -4 -5 -17 -16 -28 -11 -12 -17 -22
-14 -22 8 0 -65 -113 -79 -122 -6 -4 -8 -8 -4 -8 10 0 -80 -153 -95 -162 -7
-4 -9 -8 -5 -8 9 0 -141 -263 -156 -272 -6 -4 -7 -8 -3 -8 10 0 -31 -71 -47
-82 -6 -4 -7 -8 -3 -8 10 0 -31 -71 -47 -82 -6 -4 -7 -8 -3 -8 10 0 -31 -71
-47 -82 -6 -4 -7 -8 -3 -8 10 0 -52 -112 -67 -122 -6 -4 -7 -8 -3 -8 10 0 -53
-113 -65 -118 -4 -2 -6 -8 -2 -13 3 -5 0 -9 -7 -9 -7 0 -10 -3 -6 -6 6 -7 -70
-155 -86 -165 -5 -3 -8 -10 -8 -15 0 -5 -62 -135 -138 -289 -210 -421 -303
-640 -317 -745 -7 -53 -42 -117 -62 -113 -7 2 -12 0 -12 -5 0 -4 -13 -7 -30
-7 -82 0 -117 120 -135 455 -9 173 -15 213 -29 200 -7 -5 -15 -7 -19 -4 -3 3
-10 -4 -17 -15 -6 -12 -15 -21 -21 -21 -5 0 -28 -18 -51 -40 -23 -21 -44 -37
-48 -35 -4 2 -17 -9 -29 -25 -12 -17 -28 -30 -36 -30 -8 0 -26 -18 -40 -40
-14 -22 -30 -40 -37 -40 -6 0 -9 -3 -5 -6 3 -4 -2 -23 -12 -43 -45 -88 -65
-198 -106 -591 -71 -681 -131 -944 -419 -1833 -239 -734 -331 -1094 -301
-1164 5 -10 7 -21 7 -25 -3 -14 93 -68 158 -89 167 -52 595 -103 885 -103 199
-1 213 0 260 22 95 44 142 109 185 252 25 84 41 120 67 146 10 10 18 21 18 25
0 9 21 32 102 112 32 31 76 75 98 97 22 22 45 40 51 40 6 0 20 14 33 30 12 17
26 28 32 25 5 -4 12 0 15 9 6 15 212 181 226 181 4 0 13 7 20 16 17 20 140
114 151 114 4 0 12 7 17 15 5 8 14 15 19 15 6 0 16 7 23 16 20 25 335 258 341
253 3 -3 11 4 17 16 6 12 14 20 16 17 3 -3 19 8 36 24 17 15 35 26 39 23 4 -2
11 1 16 9 13 21 90 77 97 70 3 -3 6 -2 6 4 0 13 86 74 94 66 3 -3 6 -2 6 4 0
10 102 84 117 85 4 1 13 8 20 17 7 9 13 12 13 7 0 -6 6 -3 13 5 26 32 358 232
385 232 6 0 12 4 12 9 0 5 4 7 9 4 5 -4 11 -2 13 3 4 12 209 100 270 116 29 8
50 9 54 4 3 -5 10 -6 16 -3 7 4 8 2 4 -4 -4 -7 -3 -12 3 -12 6 0 9 -30 8 -78
-3 -91 -21 -129 -67 -139 -17 -3 -30 -9 -30 -14 0 -8 -47 -74 -88 -124 -9 -11
-15 -22 -15 -25 2 -8 -79 -154 -90 -161 -5 -3 -8 -10 -7 -15 2 -15 -33 -84
-42 -84 -5 0 -6 -4 -3 -10 3 -5 1 -10 -5 -10 -6 0 -8 -4 -5 -10 3 -5 2 -10 -3
-10 -5 0 -9 -6 -9 -12 -1 -7 -33 -83 -73 -168 -151 -326 -232 -549 -249 -687
-5 -43 -14 -90 -20 -103 -11 -30 -85 -110 -100 -110 -6 0 -11 -4 -11 -10 0
-10 -60 -45 -72 -42 -5 1 -8 -3 -8 -9 0 -5 -4 -8 -9 -5 -5 4 -11 2 -13 -3 -4
-12 -106 -62 -347 -170 -112 -51 -235 -108 -273 -127 -37 -19 -68 -31 -68 -27
0 5 -4 3 -8 -2 -7 -11 -93 -68 -102 -69 -11 0 -74 -83 -89 -116 -34 -75 -5
-985 33 -1034 46 -59 2088 -123 2440 -77 82 11 105 28 88 66 -11 23 -64 53
-84 47 -5 -1 -8 3 -8 10 0 6 -3 9 -6 5 -8 -8 -72 35 -90 62 -9 12 -20 21 -26
21 -6 0 -74 62 -151 138 -172 170 -180 177 -190 177 -4 0 -12 7 -17 15 -5 8
-10 11 -10 7 0 -5 -15 0 -32 11 -52 32 -152 60 -313 86 -189 31 -257 55 -278
99 -19 38 -13 47 48 76 93 44 370 83 710 100 99 5 187 9 195 10 1494 26 1653
35 1795 102 40 19 45 25 45 55 0 26 -12 46 -56 96 -31 35 -61 65 -67 67 -12 3
-38 26 -97 84 -15 15 -33 27 -39 27 -6 0 -18 11 -27 25 -9 14 -21 25 -27 25
-6 0 -17 7 -26 15 -9 9 -49 41 -88 72 -40 31 -73 60 -73 65 0 5 -4 7 -9 3 -6
-3 -15 4 -21 15 -6 11 -14 19 -18 18 -10 -4 -132 84 -132 95 0 4 -5 5 -10 2
-6 -3 -13 1 -16 9 -3 9 -10 13 -15 10 -5 -3 -12 2 -15 10 -3 9 -9 14 -14 11
-4 -2 -17 5 -28 16 -12 10 -24 19 -27 19 -3 0 -26 10 -53 23 -116 59 -208 79
-462 102 -233 22 -346 42 -409 73 -64 31 -72 56 -41 126 18 42 71 92 84 79 3
-3 6 -1 6 5 0 6 24 20 53 31 111 41 275 65 722 106 1048 95 1508 188 1789 359
42 25 76 42 76 38 0 -4 4 -2 8 4 8 12 93 71 105 73 4 0 16 9 26 19 111 100
115 113 41 157 -28 16 -50 33 -50 38 0 4 -4 5 -10 2 -5 -3 -10 -1 -10 5 0 6
-4 8 -10 5 -5 -3 -10 -1 -10 4 0 6 -3 10 -7 9 -5 -1 -57 17 -118 41 -314 125
-599 195 -1100 271 -304 46 -426 70 -432 87 -3 8 12 39 32 69 42 61 200 214
221 214 7 0 18 9 24 21 7 11 14 19 16 16 3 -3 16 5 30 18 91 84 364 178 1194
409 563 157 809 236 942 301 36 19 69 31 72 28 3 -4 6 -2 6 4 0 9 35 30 54 31
5 0 12 5 15 10 10 16 89 61 95 55 3 -4 6 -1 6 5 0 11 52 44 66 41 4 0 10 3 13
8 10 15 71 55 71 47 0 -4 7 1 15 12 8 10 15 15 15 10 0 -6 6 -3 13 5 16 20
250 174 260 171 4 -1 7 2 7 7 0 10 112 86 123 83 4 -1 7 2 7 7 0 9 71 59 82
57 4 -1 13 6 20 15 17 22 168 131 168 122 0 -4 6 0 13 9 15 19 259 203 269
203 4 0 15 10 23 23 9 12 20 20 25 17 5 -3 14 4 20 15 6 11 17 20 25 20 8 0
19 9 25 20 6 11 17 20 25 20 8 0 19 9 25 20 6 11 16 20 23 20 7 0 23 14 35 30
13 17 26 30 31 30 11 0 221 209 221 220 0 5 8 15 18 22 9 7 25 24 34 38 9 14
27 36 39 50 13 13 24 27 24 30 0 3 16 28 36 55 20 28 56 82 80 120 24 39 48
73 54 77 5 4 7 8 2 8 -4 0 9 32 28 70 36 71 68 169 67 204 -1 11 -7 23 -14 28
-38 26 -233 -33 -733 -224 -953 -363 -2207 -797 -2742 -948 -103 -30 -193 -43
-193 -30 0 17 90 120 105 120 7 0 25 16 39 35 15 19 34 35 42 35 8 0 17 7 20
15 5 13 508 400 538 415 6 3 28 21 49 40 21 19 42 35 47 35 4 0 18 12 30 28
12 15 27 27 34 27 14 0 106 95 106 109 0 6 10 17 22 25 12 9 18 16 13 16 -6 0
-1 7 9 15 11 8 17 15 13 15 -4 0 1 17 12 38 29 58 41 142 41 296 0 355 -50
1000 -80 1030 -7 7 -21 6 -43 -2 -17 -7 -36 -14 -42 -15 -5 -1 -12 -5 -15 -8
-9 -10 -185 -122 -188 -120 -2 1 -9 -4 -15 -12 -15 -17 -183 -147 -191 -147
-4 0 -24 -17 -46 -37 -22 -21 -43 -38 -47 -38 -5 0 -18 -9 -29 -20 -41 -39
-107 -90 -115 -90 -4 0 -14 -7 -21 -16 -17 -21 -134 -109 -145 -109 -4 0 -14
-9 -21 -20 -7 -12 -17 -18 -22 -15 -5 3 -14 -4 -20 -15 -6 -11 -15 -19 -20
-17 -5 1 -15 -5 -22 -14 -21 -26 -215 -169 -221 -163 -3 3 -11 -4 -17 -16 -6
-12 -14 -19 -17 -16 -3 3 -11 0 -17 -8 -19 -24 -213 -165 -219 -160 -3 3 -10
-4 -17 -15 -6 -12 -15 -19 -21 -16 -5 4 -9 2 -9 -3 0 -11 -92 -78 -102 -74 -5
1 -8 -2 -8 -6 0 -11 -92 -78 -102 -74 -5 1 -8 -2 -8 -6 0 -5 -21 -24 -47 -43
-27 -18 -48 -32 -48 -30 0 3 -15 -10 -34 -27 -19 -17 -37 -30 -40 -29 -3 1
-19 -9 -34 -23 -16 -14 -33 -25 -38 -25 -5 0 -13 -5 -17 -11 -12 -19 -330
-243 -336 -237 -3 4 -6 2 -6 -4 0 -12 -81 -69 -92 -65 -5 1 -8 -2 -8 -7 0 -9
-77 -63 -85 -59 -2 2 -10 -4 -17 -13 -19 -22 -148 -112 -148 -102 0 4 -5 0
-11 -10 -6 -9 -14 -15 -19 -12 -4 3 -11 -2 -14 -11 -3 -8 -10 -12 -16 -9 -5 3
-10 2 -10 -3 0 -5 -31 -30 -70 -56 -38 -25 -70 -43 -70 -39 0 4 -7 -2 -15 -13
-8 -10 -15 -15 -15 -11 0 4 -10 -1 -22 -12 -11 -11 -25 -18 -30 -15 -4 3 -8 1
-8 -4 0 -5 -40 -28 -89 -51 -91 -42 -166 -59 -189 -43 -17 12 -20 94 -4 100 7
2 10 8 6 13 -3 5 0 9 6 9 6 0 9 4 6 9 -3 4 17 41 45 82 52 75 63 89 112 139
15 15 27 33 27 39 0 5 18 25 40 42 22 18 40 37 40 43 0 14 312 326 326 326 6
0 41 34 78 75 37 41 73 75 80 75 7 0 43 34 80 75 37 41 73 75 81 75 7 0 26 15
43 34 24 27 31 47 37 102 22 195 -11 1708 -40 1894 -12 75 -31 90 -81 64z"/>
<path d="M5418 29188 c-1 -35 -2 -252 -3 -483 -3 -472 -24 -1277 -60 -2199
-13 -341 -21 -625 -18 -630 3 -6 89 -138 191 -293 101 -155 184 -285 182 -289
-1 -4 3 -10 8 -13 17 -10 131 -189 125 -195 -4 -3 -1 -6 5 -6 12 0 48 -59 44
-72 -1 -5 2 -8 8 -8 10 0 45 -60 42 -72 -1 -5 2 -8 8 -8 9 0 41 -54 39 -66 0
-4 3 -10 8 -13 16 -11 55 -71 46 -71 -4 0 -3 -4 2 -8 19 -13 55 -69 48 -76 -3
-3 -1 -6 5 -6 12 0 48 -59 44 -72 -1 -5 2 -8 6 -8 8 0 137 -200 136 -210 -1
-3 6 -10 15 -17 9 -7 12 -13 7 -13 -6 0 -1 -7 10 -15 10 -8 15 -15 10 -15 -6
0 -3 -6 6 -12 17 -14 148 -214 147 -225 0 -3 6 -10 15 -15 9 -5 14 -13 11 -19
-4 -5 -2 -9 3 -9 10 0 105 -136 100 -144 -2 -3 4 -11 13 -18 23 -18 244 -331
241 -341 -1 -4 5 -10 13 -13 8 -4 15 -12 15 -20 0 -8 4 -14 8 -14 9 0 137
-170 137 -183 0 -4 7 -12 15 -17 8 -5 15 -14 15 -19 0 -6 7 -16 16 -23 21 -18
79 -94 79 -105 0 -4 9 -14 20 -21 12 -7 18 -17 15 -22 -3 -5 1 -12 9 -17 19
-11 96 -110 90 -116 -3 -2 7 -12 21 -21 14 -9 23 -21 20 -26 -3 -5 4 -14 15
-20 11 -6 20 -17 20 -25 0 -8 6 -18 14 -22 8 -4 46 -48 85 -98 39 -49 77 -97
86 -106 8 -9 15 -19 15 -23 0 -5 12 -21 28 -36 48 -50 62 -67 62 -74 0 -5 12
-20 28 -35 15 -16 38 -42 52 -60 14 -17 35 -41 48 -53 12 -12 22 -26 22 -30 0
-5 16 -26 36 -46 62 -63 74 -77 74 -88 0 -6 14 -20 30 -32 17 -13 30 -29 30
-36 0 -8 16 -26 35 -40 19 -15 35 -33 35 -40 0 -8 16 -26 35 -40 19 -15 35
-33 35 -40 0 -8 16 -26 35 -40 19 -15 35 -33 35 -39 0 -7 20 -30 45 -50 25
-21 45 -44 45 -50 0 -7 20 -30 45 -50 25 -21 45 -44 45 -51 0 -7 25 -34 55
-60 30 -26 55 -52 55 -59 0 -6 35 -45 78 -87 42 -42 221 -221 396 -398 175
-177 322 -322 327 -322 4 0 36 -31 71 -70 35 -38 68 -70 75 -70 7 0 29 -20 50
-45 20 -25 43 -45 49 -45 7 0 29 -20 50 -45 20 -25 42 -45 50 -45 7 0 25 -16
40 -35 14 -19 32 -35 40 -35 7 0 25 -16 40 -35 14 -19 32 -35 40 -35 7 0 25
-16 40 -35 14 -19 32 -35 40 -35 7 0 25 -16 40 -35 15 -20 29 -33 33 -30 3 3
19 -7 36 -24 16 -16 50 -47 74 -68 25 -21 62 -55 82 -75 21 -21 42 -38 46 -38
8 0 34 -23 103 -92 20 -21 41 -38 46 -38 9 0 33 -22 104 -92 20 -21 42 -38 48
-38 6 0 21 -13 34 -30 12 -16 27 -30 33 -30 7 0 24 -12 39 -27 14 -16 43 -41
63 -58 20 -16 51 -45 69 -62 18 -18 37 -33 43 -33 6 0 20 -13 33 -30 12 -16
27 -30 34 -30 7 0 22 -13 34 -30 12 -16 27 -30 34 -30 7 0 22 -10 34 -22 12
-13 39 -36 59 -53 19 -16 50 -43 67 -60 17 -16 34 -28 38 -27 4 1 17 -12 30
-28 12 -17 28 -30 35 -30 7 0 20 -11 29 -25 9 -14 21 -25 27 -25 6 0 20 -9 32
-19 11 -11 36 -34 55 -52 19 -19 38 -32 42 -31 4 1 17 -12 30 -28 12 -17 27
-30 34 -30 7 0 20 -10 29 -22 8 -13 19 -23 24 -23 9 0 25 -13 81 -67 15 -16
32 -28 37 -28 5 0 31 -20 56 -45 26 -25 52 -45 57 -45 5 0 17 -11 26 -25 9
-14 20 -22 25 -20 4 3 16 -6 25 -20 9 -14 19 -23 21 -21 6 6 215 -161 226
-180 5 -8 12 -12 17 -9 5 3 15 -3 22 -15 7 -11 16 -20 21 -20 11 0 168 -118
185 -139 7 -9 15 -15 17 -13 9 4 174 -110 179 -124 3 -8 11 -14 19 -14 15 0
86 -70 71 -70 -5 0 -1 -5 9 -11 10 -6 17 -22 17 -40 0 -56 -71 -61 -208 -15
-102 35 -242 97 -242 108 0 5 -4 6 -10 3 -5 -3 -10 -1 -10 5 0 6 -4 8 -10 5
-5 -3 -10 -1 -10 6 0 7 -3 9 -7 6 -6 -7 -113 50 -124 66 -3 5 -9 7 -12 5 -8
-5 -107 55 -107 65 0 4 -4 6 -8 3 -5 -3 -19 4 -30 15 -12 11 -22 17 -22 14 0
-7 -212 134 -225 150 -5 6 -12 12 -15 12 -11 -1 -90 56 -90 64 0 5 -3 8 -8 7
-9 -4 -168 107 -190 132 -8 11 -18 17 -22 15 -4 -2 -20 8 -36 23 -16 15 -34
29 -39 31 -21 8 -95 65 -95 73 0 5 -4 7 -9 3 -6 -3 -15 4 -21 16 -7 11 -14 18
-17 15 -6 -5 -321 228 -341 253 -7 9 -17 16 -22 16 -5 0 -16 9 -24 20 -9 11
-16 17 -16 13 0 -10 -143 100 -153 118 -5 8 -12 12 -17 9 -5 -3 -15 3 -22 15
-7 11 -17 20 -21 20 -12 0 -278 208 -299 234 -10 11 -18 17 -18 13 0 -10 -112
80 -123 99 -4 8 -14 14 -22 14 -8 0 -19 9 -25 20 -6 11 -15 18 -20 15 -5 -3
-16 5 -25 17 -8 13 -19 23 -23 23 -13 0 -230 177 -236 192 -3 8 -10 12 -15 8
-6 -3 -18 6 -27 20 -9 14 -22 25 -30 25 -7 0 -18 9 -24 20 -6 11 -17 20 -25
20 -8 0 -18 6 -22 13 -4 7 -19 20 -33 28 -14 9 -41 31 -60 50 -19 18 -38 32
-42 31 -4 -1 -17 11 -29 28 -12 16 -26 27 -30 24 -4 -2 -18 9 -30 25 -12 17
-26 28 -30 25 -4 -2 -18 9 -30 26 -13 16 -29 30 -36 30 -7 0 -22 14 -35 30
-12 17 -28 30 -35 30 -7 0 -22 14 -35 30 -12 17 -27 30 -34 30 -7 0 -28 18
-45 40 -18 22 -38 40 -45 40 -7 0 -25 16 -40 35 -14 19 -32 35 -40 35 -7 0
-30 20 -51 45 -20 25 -42 45 -48 45 -10 0 -29 18 -181 169 -39 39 -75 71 -82
71 -6 0 -37 29 -68 65 -32 36 -62 65 -68 65 -6 0 -65 54 -131 120 -103 103
-566 566 -990 990 -69 69 -125 129 -125 135 0 5 -41 50 -90 100 -50 49 -122
122 -160 160 -39 39 -70 75 -70 80 0 6 -27 34 -60 63 -33 29 -60 59 -60 66 0
7 -25 34 -55 60 -30 26 -55 52 -55 59 0 6 -24 35 -52 63 -96 94 -138 139 -138
150 0 5 -20 27 -45 47 -25 21 -45 44 -45 51 0 7 -18 27 -40 45 -22 17 -40 38
-40 45 0 7 -18 27 -40 45 -22 17 -40 37 -40 44 0 7 -16 25 -35 40 -20 16 -33
32 -30 36 3 5 -11 21 -30 35 -19 15 -35 32 -35 38 0 6 -17 28 -37 48 -74 74
-93 95 -93 106 0 7 -16 24 -35 38 -19 15 -34 30 -33 34 2 4 -12 23 -31 42 -18
19 -41 44 -52 55 -10 12 -19 26 -19 32 0 6 -11 18 -25 27 -14 9 -25 22 -25 29
0 7 -13 23 -30 35 -16 13 -29 26 -28 30 1 4 -11 21 -27 38 -41 42 -108 122
-119 142 -5 9 -15 21 -23 25 -7 4 -13 14 -13 21 0 8 -11 21 -25 30 -14 9 -24
20 -23 24 1 4 -13 23 -31 42 -19 19 -41 46 -50 60 -8 14 -21 29 -28 33 -7 4
-13 12 -13 18 0 5 -17 27 -37 49 -21 22 -38 43 -38 47 -1 5 -16 25 -35 46 -19
21 -35 42 -35 47 0 5 -7 15 -16 22 -19 15 -273 348 -265 348 3 0 -8 14 -24 32
-16 17 -27 35 -24 39 2 4 -2 11 -9 16 -17 10 -120 153 -110 153 4 0 0 6 -9 13
-21 16 -141 197 -131 197 5 0 3 4 -2 8 -19 13 -55 69 -48 76 3 3 1 6 -5 6 -11
0 -50 65 -50 84 0 5 -5 12 -10 15 -14 8 -115 183 -115 199 0 6 -3 12 -7 12 -7
0 -27 39 -28 54 0 5 -5 12 -10 15 -5 3 -24 32 -42 64 -17 31 -33 57 -33 57 -1
0 -3 -30 -4 -68 -1 -37 -13 -195 -27 -352 -38 -425 -48 -645 -48 -1070 1 -425
7 -580 53 -1285 l31 -480 27 -40 c15 -22 39 -46 53 -53 15 -7 48 -37 74 -67
25 -30 52 -55 60 -55 7 0 37 -27 66 -60 29 -33 58 -60 65 -60 6 0 36 -27 65
-60 29 -33 58 -60 65 -60 6 0 36 -27 65 -60 29 -33 58 -60 64 -60 6 0 39 -28
73 -62 58 -59 87 -87 250 -235 34 -32 87 -82 115 -110 29 -29 57 -53 61 -53 9
0 46 -34 140 -127 23 -24 47 -43 53 -43 6 0 23 -16 38 -35 14 -19 32 -35 40
-35 7 0 25 -16 40 -35 14 -19 32 -35 40 -35 7 0 23 -13 36 -30 12 -16 27 -30
34 -30 7 0 25 -16 40 -35 14 -19 32 -35 39 -35 6 0 24 -12 39 -27 14 -16 43
-41 62 -58 20 -16 49 -41 66 -55 16 -14 43 -36 60 -50 17 -14 45 -38 62 -55
17 -16 34 -28 38 -27 4 1 17 -11 29 -28 12 -16 26 -27 30 -24 4 2 18 -9 30
-26 13 -16 29 -30 36 -30 7 0 20 -11 29 -25 9 -14 22 -25 28 -25 6 0 19 -8 28
-17 9 -10 27 -26 40 -35 83 -62 255 -202 266 -216 7 -9 18 -16 23 -15 5 2 16
-8 25 -22 9 -14 19 -23 23 -21 4 3 25 -12 47 -32 21 -20 42 -37 46 -37 3 0 24
-16 45 -35 21 -19 42 -34 46 -35 5 0 14 -8 21 -17 7 -10 16 -18 20 -18 10 0
329 -240 344 -258 6 -9 12 -12 12 -8 0 9 82 -53 93 -71 5 -8 12 -11 16 -9 4 3
21 -7 37 -22 16 -15 32 -27 34 -27 12 -1 190 -129 190 -137 0 -5 4 -7 9 -3 6
3 14 -2 19 -11 5 -9 13 -16 18 -16 13 0 207 -128 222 -147 6 -8 12 -11 12 -5
0 5 7 0 15 -10 8 -11 15 -16 15 -12 0 8 61 -32 72 -49 4 -5 8 -6 8 -2 0 9 60
-30 71 -46 3 -5 9 -8 13 -7 11 3 116 -63 116 -73 0 -4 4 -6 8 -3 5 3 19 -4 30
-15 12 -11 22 -17 22 -14 0 8 113 -65 122 -79 4 -6 8 -7 8 -3 0 9 61 -31 72
-48 4 -5 8 -6 8 -2 0 9 61 -31 72 -48 4 -5 8 -6 8 -2 0 9 61 -31 72 -48 4 -5
8 -6 8 -2 0 8 91 -50 101 -66 3 -5 8 -7 10 -6 7 5 129 -73 129 -82 0 -5 3 -8
8 -7 12 4 102 -53 102 -65 0 -6 3 -8 6 -4 6 6 93 -48 105 -66 3 -5 10 -9 15
-9 17 0 94 -50 94 -61 0 -6 3 -8 6 -4 6 6 154 -80 165 -96 3 -5 9 -8 13 -8 17
2 24 -1 44 -19 12 -12 22 -18 22 -15 0 9 113 -56 122 -69 4 -6 8 -8 8 -3 0 9
153 -73 158 -85 2 -5 8 -6 13 -2 5 3 9 0 9 -5 0 -6 3 -10 8 -9 9 4 526 -254
530 -264 2 -4 8 -6 13 -2 5 3 9 0 9 -7 0 -7 3 -10 6 -7 3 3 101 -39 217 -94
117 -55 327 -152 467 -215 529 -239 845 -386 852 -397 4 -6 8 -8 8 -4 0 9 153
-62 162 -76 4 -6 8 -8 8 -4 0 9 153 -62 162 -76 4 -6 8 -8 8 -4 0 10 213 -91
222 -105 4 -7 8 -9 8 -5 0 9 254 -112 258 -123 2 -5 8 -7 13 -3 5 3 9 0 9 -6
0 -6 5 -8 10 -5 6 3 10 1 10 -5 0 -6 5 -8 10 -5 6 3 10 1 10 -5 0 -6 5 -8 10
-5 6 3 10 1 10 -5 0 -6 5 -8 10 -5 6 3 10 1 10 -6 0 -7 3 -10 6 -6 7 7 347
-161 352 -174 2 -5 8 -7 13 -3 5 3 9 0 9 -6 0 -6 5 -8 10 -5 6 3 10 1 10 -5 0
-6 5 -8 10 -5 6 3 10 1 10 -6 0 -7 3 -9 7 -6 7 8 194 -89 205 -107 4 -6 8 -7
8 -3 0 8 108 -49 120 -62 3 -3 10 -7 16 -8 19 -4 118 -64 126 -77 4 -6 8 -8 8
-3 0 9 82 -41 92 -57 4 -6 8 -8 8 -3 0 4 24 -5 53 -19 134 -68 464 -177 679
-223 255 -55 504 -70 576 -34 59 29 55 54 -22 130 -36 35 -66 62 -66 59 0 -3
-24 9 -52 28 -80 50 -173 95 -388 186 -205 87 -351 156 -361 172 -3 5 -9 9
-13 8 -11 -4 -76 33 -76 43 0 4 -4 6 -10 2 -5 -3 -18 3 -30 15 -11 11 -21 19
-23 18 -7 -5 -127 73 -127 83 0 5 -4 8 -9 6 -11 -2 -211 144 -211 154 0 4 -9
10 -19 14 -10 3 -42 28 -69 55 -28 28 -55 50 -61 50 -6 0 -20 14 -33 30 -12
17 -27 30 -34 30 -7 0 -32 23 -55 50 -23 28 -46 50 -51 50 -4 0 -147 141 -317
313 -171 171 -344 346 -386 387 -41 41 -75 79 -75 84 0 6 -28 38 -62 72 -35
35 -90 92 -123 128 -33 36 -88 93 -122 127 -35 34 -63 67 -63 74 0 6 -22 31
-50 54 -27 23 -50 48 -50 54 0 7 -20 30 -45 50 -25 21 -45 44 -45 51 0 8 -20
30 -45 50 -25 21 -45 42 -45 48 0 6 -17 28 -37 48 -73 73 -93 95 -93 106 0 6
-14 20 -30 32 -16 13 -30 29 -30 36 0 8 -11 21 -25 30 -14 9 -25 23 -25 30 0
8 -11 21 -25 30 -14 9 -25 23 -25 30 0 7 -9 20 -20 27 -26 19 -220 280 -215
290 3 4 -2 10 -11 13 -9 4 -14 9 -11 12 3 3 -3 14 -14 25 -11 11 -17 24 -14
29 4 6 2 10 -3 10 -11 0 -58 96 -68 137 -18 77 2 114 64 117 42 2 102 -13 102
-26 0 -5 5 -6 10 -3 6 3 10 1 10 -5 0 -6 5 -8 10 -5 6 3 10 1 10 -5 0 -6 4 -9
8 -6 5 3 19 -4 30 -15 12 -11 22 -17 22 -14 0 8 89 -55 150 -105 131 -107 157
-132 476 -453 144 -144 300 -300 348 -347 48 -47 86 -90 86 -96 0 -6 27 -34
60 -63 33 -29 60 -58 60 -65 0 -7 27 -36 60 -65 33 -29 60 -58 60 -65 0 -7 27
-36 60 -65 33 -29 60 -58 60 -65 0 -7 27 -36 60 -65 33 -29 60 -58 60 -65 0
-7 27 -36 60 -65 33 -29 60 -58 60 -64 0 -6 42 -52 93 -102 50 -50 199 -200
331 -333 131 -133 242 -242 246 -242 5 0 27 -21 50 -47 23 -27 46 -48 51 -48
5 0 21 -12 37 -27 64 -63 87 -83 94 -80 4 1 15 -9 24 -23 9 -14 20 -22 25 -20
4 3 13 -4 19 -15 6 -11 17 -20 25 -20 8 0 18 -8 24 -17 5 -10 12 -17 15 -15 4
1 39 -19 79 -46 39 -26 95 -61 122 -77 28 -15 53 -33 57 -39 4 -6 8 -8 8 -3 0
10 83 -32 92 -47 4 -6 8 -8 8 -4 0 3 57 -18 126 -48 200 -87 286 -101 329 -54
25 28 34 130 35 406 l0 241 -127 33 c-243 62 -453 136 -453 159 0 6 -5 10 -12
8 -6 -1 -18 12 -26 28 -8 17 -23 39 -33 51 -11 11 -17 23 -14 26 3 3 -6 13
-20 22 -14 9 -25 22 -25 29 0 7 -20 30 -45 50 -25 21 -45 43 -45 48 0 6 -30
40 -67 77 -391 392 -1065 1064 -1168 1164 -71 70 -169 166 -216 213 -47 47
-91 85 -97 85 -6 0 -39 32 -73 70 -35 39 -69 70 -75 70 -7 0 -41 31 -75 70
-35 38 -69 70 -76 70 -6 0 -29 20 -50 45 -20 25 -42 45 -48 45 -10 0 -42 29
-125 113 -20 20 -41 37 -46 37 -5 0 -33 22 -62 50 -29 27 -54 50 -56 50 -4 0
-137 87 -153 100 -7 6 -13 8 -13 4 0 -8 -113 56 -121 68 -3 5 -10 9 -15 9 -15
-2 -144 72 -144 82 0 6 -3 7 -6 4 -8 -8 -64 24 -64 36 0 4 -4 6 -8 3 -5 -3
-18 3 -28 12 -10 10 -22 18 -26 18 -4 -1 -18 8 -30 19 -13 10 -24 18 -26 17
-6 -5 -62 29 -62 38 0 6 -3 9 -7 8 -14 -4 -73 32 -73 44 0 6 -3 9 -6 5 -7 -7
-212 127 -231 151 -7 9 -13 13 -13 9 0 -9 -111 71 -122 87 -4 6 -11 11 -15 11
-14 0 -102 67 -107 82 -3 8 -10 12 -14 9 -5 -3 -27 13 -50 34 -23 22 -46 40
-51 40 -6 0 -18 11 -27 25 -9 14 -22 25 -30 25 -7 0 -21 11 -30 25 -9 14 -21
25 -28 25 -6 0 -27 16 -46 35 -19 19 -86 83 -147 142 -62 59 -113 112 -113
119 0 6 -11 19 -25 28 -14 9 -25 23 -25 30 0 8 -11 21 -25 30 -14 9 -23 21
-20 25 2 5 -7 16 -20 25 -14 9 -23 21 -20 26 3 5 -4 14 -15 20 -11 6 -20 17
-20 25 0 8 -9 19 -20 25 -11 6 -20 16 -20 22 0 6 -10 21 -22 34 -58 59 -178
210 -172 216 2 3 -7 13 -21 22 -14 9 -23 21 -20 26 3 5 -4 14 -15 20 -11 6
-20 17 -20 25 0 8 -9 19 -20 25 -11 6 -20 15 -20 21 0 5 -16 26 -35 46 -19 20
-35 40 -35 45 0 5 -16 25 -35 45 -19 20 -35 40 -35 45 0 5 -16 25 -35 45 -19
20 -35 40 -35 45 0 5 -16 25 -35 45 -19 20 -35 42 -35 50 0 7 -6 16 -14 19
-16 6 -82 96 -79 106 2 4 -6 12 -17 18 -11 6 -18 15 -15 20 3 5 -4 14 -15 20
-11 6 -18 15 -15 20 3 5 -4 14 -15 20 -11 6 -18 15 -15 20 3 5 -4 14 -16 20
-11 7 -18 14 -15 17 3 3 -5 14 -17 24 -12 10 -18 18 -13 19 6 0 3 6 -6 13 -22
17 -230 307 -220 307 4 0 -1 5 -11 11 -9 6 -15 14 -12 20 4 5 2 9 -3 9 -9 0
-98 128 -100 143 0 5 -9 15 -19 23 -10 7 -15 14 -11 14 4 0 -4 12 -17 26 -14
15 -22 30 -20 34 3 4 -2 11 -11 14 -8 3 -12 10 -9 16 3 5 2 10 -3 10 -11 0
-148 212 -144 223 1 4 -2 7 -7 7 -9 0 -113 165 -111 176 1 4 -2 10 -7 13 -18
12 -52 68 -46 75 3 3 1 6 -5 6 -11 0 -44 52 -41 66 0 4 -4 10 -9 13 -12 8 -84
121 -77 121 3 0 -3 10 -14 22 -11 11 -18 25 -15 30 3 4 1 8 -3 8 -9 0 -74 101
-71 110 1 3 -6 14 -15 25 -9 11 -16 22 -15 25 1 3 -7 15 -17 28 -11 12 -18 25
-17 29 2 3 -1 9 -6 12 -11 7 -182 288 -185 305 -1 6 -5 13 -8 16 -10 9 -59 89
-61 102 -2 7 -11 21 -20 32 -10 10 -15 23 -12 28 3 4 1 8 -4 8 -9 0 -64 94
-62 106 1 4 -3 10 -8 13 -11 7 -312 529 -315 546 -1 6 -4 12 -8 15 -11 11 -50
80 -44 80 3 0 -3 10 -15 22 -18 20 -21 27 -19 44 0 4 -3 10 -8 13 -15 10 -55
81 -46 81 4 0 3 4 -3 8 -16 11 -57 82 -47 82 4 0 3 4 -3 8 -16 11 -57 82 -47
82 4 0 3 4 -3 8 -12 7 -104 169 -107 187 -1 6 -5 12 -8 15 -14 12 -60 100 -52
100 4 0 3 4 -2 8 -16 10 -67 102 -58 102 4 0 3 4 -3 8 -15 10 -77 122 -67 122
4 0 3 4 -3 8 -15 10 -77 122 -67 122 4 0 3 4 -3 8 -16 10 -87 142 -77 142 4 0
3 4 -3 8 -15 10 -97 162 -87 162 4 0 3 4 -3 8 -17 11 -114 198 -107 205 3 4 1
7 -6 7 -7 0 -10 4 -7 9 4 5 2 11 -2 13 -14 5 -142 255 -135 262 3 3 1 6 -6 6
-7 0 -9 5 -6 10 3 6 1 10 -5 10 -6 0 -8 5 -5 10 3 6 1 10 -5 10 -6 0 -8 5 -5
10 3 6 1 10 -5 10 -6 0 -9 4 -6 9 4 5 2 11 -3 13 -13 5 -221 425 -214 432 4 3
1 6 -6 6 -7 0 -9 5 -6 10 3 6 1 10 -5 10 -6 0 -8 5 -5 10 3 6 1 10 -5 10 -6 0
-8 5 -5 10 3 6 1 10 -5 10 -6 0 -8 5 -5 10 3 6 1 10 -5 10 -6 0 -8 5 -5 10 3
6 1 10 -5 10 -6 0 -8 5 -5 10 3 6 1 10 -5 10 -6 0 -8 5 -5 10 3 6 1 10 -5 10
-6 0 -8 5 -5 10 3 6 2 10 -3 10 -9 0 -78 150 -74 163 1 4 -3 7 -9 7 -5 0 -7 5
-4 10 3 6 1 10 -5 10 -6 0 -9 4 -6 9 4 5 3 11 -1 13 -10 4 -59 110 -56 120 2
4 -2 8 -8 8 -5 0 -7 5 -4 10 3 6 1 10 -5 10 -6 0 -8 5 -5 10 3 6 2 10 -2 10
-9 0 -39 69 -35 83 1 4 -3 7 -9 7 -5 0 -7 5 -4 10 3 6 2 10 -3 10 -9 0 -27 47
-24 63 1 4 -3 7 -9 7 -5 0 -7 5 -4 10 3 6 2 10 -2 10 -9 0 -39 69 -35 83 1 4
-3 7 -9 7 -5 0 -7 5 -4 10 3 6 2 10 -3 10 -9 0 -27 47 -24 63 1 4 -3 7 -9 7
-5 0 -7 5 -4 10 3 6 1 10 -4 10 -6 0 -10 3 -9 8 1 4 -5 21 -15 38 -9 17 -13
34 -10 38 4 3 1 6 -6 6 -7 0 -9 5 -6 10 3 6 2 10 -2 10 -9 0 -39 69 -35 83 1
4 -3 7 -9 7 -5 0 -7 5 -4 10 3 6 1 10 -5 10 -6 0 -9 4 -6 9 3 5 -27 19 -67 30
-39 12 -91 30 -115 41 -23 11 -45 20 -47 20 -3 0 -6 -28 -7 -62z"/>
<path d="M26640 26724 c-25 -2 -121 -11 -215 -20 -172 -15 -785 -85 -905 -103
-36 -6 -121 -17 -190 -27 -703 -93 -1072 -174 -1291 -285 -43 -21 -79 -37 -79
-34 0 3 -10 -3 -22 -15 -20 -19 -33 -24 -50 -21 -5 0 -8 -3 -8 -8 0 -8 -122
-88 -128 -83 -1 1 -12 -7 -24 -17 -11 -11 -25 -18 -30 -15 -4 3 -8 1 -8 -5 0
-12 -236 -133 -380 -194 -104 -44 -145 -58 -565 -192 -407 -130 -655 -231
-655 -266 0 -59 402 -105 1125 -128 841 -28 1172 -33 1565 -22 457 13 613 25
690 52 30 10 60 20 65 22 6 1 13 7 17 12 4 6 11 10 15 10 5 0 26 19 47 43 21
23 44 42 50 42 7 0 34 25 60 55 26 30 53 55 60 55 7 0 34 25 60 55 26 30 53
55 59 55 7 0 30 20 50 45 21 25 44 45 50 45 7 0 30 20 50 45 21 25 44 45 50
45 7 0 30 20 50 45 21 25 44 45 50 45 7 0 30 20 50 45 21 25 43 45 49 45 5 0
33 23 62 51 28 28 74 73 101 100 28 27 54 49 58 49 5 0 46 37 92 83 46 45 120
115 164 156 45 41 81 80 81 87 0 7 15 25 33 40 17 15 32 30 32 35 0 4 3 11 8
15 15 15 6 42 -15 48 -30 8 -221 15 -278 10z"/>
<path d="M23865 24650 c-342 -11 -501 -26 -597 -56 -43 -14 -81 -24 -84 -24
-4 1 -10 -2 -13 -7 -9 -13 -105 -68 -113 -65 -5 1 -8 -2 -8 -6 0 -9 -95 -74
-106 -72 -3 1 -12 -7 -20 -17 -7 -10 -14 -14 -14 -9 0 6 -7 1 -15 -10 -8 -10
-15 -14 -15 -9 0 6 -4 5 -8 -2 -8 -13 -200 -153 -210 -153 -4 0 -13 -9 -20
-20 -7 -12 -17 -18 -22 -15 -5 3 -14 -4 -20 -15 -6 -12 -19 -24 -29 -28 -28
-11 -150 -147 -164 -183 -17 -42 -8 -80 22 -95 12 -6 39 -27 59 -45 20 -18 39
-33 42 -34 9 0 94 -67 108 -84 6 -8 12 -11 12 -7 0 9 82 -53 93 -71 5 -8 12
-11 16 -9 4 3 22 -8 40 -24 17 -16 35 -30 39 -30 15 -2 112 -74 112 -83 0 -6
3 -8 6 -4 6 6 72 -38 86 -58 4 -5 11 -10 15 -10 14 -1 93 -57 93 -66 0 -5 3
-8 8 -6 10 3 182 -124 182 -135 0 -4 5 -8 11 -8 13 0 102 -67 112 -86 4 -8 14
-14 20 -14 7 0 28 -15 47 -32 19 -18 39 -33 43 -33 5 0 14 -8 21 -17 7 -10 18
-18 23 -18 5 0 26 -16 46 -35 21 -20 37 -33 37 -30 0 8 401 -312 425 -340 11
-12 25 -24 32 -26 14 -5 95 -72 134 -111 15 -16 31 -28 35 -28 5 0 17 -9 29
-19 11 -11 36 -34 55 -52 19 -19 38 -32 42 -31 4 1 17 -12 30 -28 12 -17 28
-30 35 -30 7 0 20 -11 29 -25 9 -14 22 -25 30 -25 7 0 21 -11 30 -25 9 -14 22
-25 30 -25 7 0 21 -11 30 -25 9 -14 22 -25 30 -25 7 0 21 -11 30 -25 9 -14 21
-25 27 -25 6 0 20 -9 32 -19 66 -63 81 -75 87 -73 4 1 15 -9 24 -23 9 -14 20
-23 24 -20 5 3 16 -5 25 -17 8 -13 19 -23 23 -23 10 0 143 -103 160 -124 7 -9
16 -16 20 -16 4 0 45 -27 92 -61 111 -80 163 -109 182 -102 53 21 73 386 32
586 -66 327 -276 903 -455 1252 -26 52 -48 99 -48 104 0 5 -3 12 -9 15 -9 6
-86 121 -87 131 0 3 -13 19 -29 35 -41 44 -66 81 -59 89 3 3 2 6 -4 6 -17 0
-33 56 -20 69 66 66 740 -182 1465 -541 144 -71 262 -133 262 -137 0 -4 6 -8
13 -8 26 -1 383 -220 398 -245 3 -5 10 -10 15 -10 15 0 124 -70 124 -79 0 -5
3 -8 8 -7 11 4 212 -124 212 -135 0 -6 3 -7 6 -4 7 7 63 -29 76 -48 4 -5 8 -6
8 -2 0 9 60 -30 71 -46 3 -5 8 -7 10 -6 7 6 119 -62 119 -72 0 -6 4 -8 8 -5 5
3 19 -4 30 -15 12 -11 22 -17 22 -15 0 8 184 -104 191 -116 3 -5 10 -10 15 -9
5 0 61 -26 124 -58 209 -106 347 -149 560 -176 277 -34 627 -35 763 0 65 16
110 42 115 67 4 21 -40 81 -70 96 -15 7 -37 26 -48 42 -12 17 -28 30 -35 30
-8 0 -26 16 -41 35 -14 19 -32 35 -40 35 -7 0 -21 11 -30 25 -9 14 -22 25 -30
25 -7 0 -21 11 -30 25 -9 14 -22 25 -30 25 -7 0 -20 10 -29 23 -8 12 -19 22
-23 22 -10 0 -161 121 -186 149 -10 12 -22 20 -27 19 -5 -2 -16 8 -25 22 -9
14 -20 22 -25 20 -4 -3 -16 6 -25 20 -9 14 -19 23 -22 21 -5 -6 -114 80 -125
100 -4 8 -14 14 -21 14 -6 0 -29 15 -49 34 -21 19 -44 37 -52 40 -8 3 -15 10
-15 16 0 5 -5 10 -10 10 -14 0 -110 72 -110 83 0 4 -4 6 -8 3 -5 -3 -21 7 -37
22 -16 15 -32 27 -35 27 -10 1 -165 106 -171 117 -3 5 -10 10 -15 10 -5 0 -53
25 -107 55 -134 76 -238 120 -509 213 -128 43 -234 84 -236 90 -2 5 -8 8 -13
4 -5 -3 -9 0 -9 5 0 6 -4 10 -9 9 -18 -5 -67 34 -80 63 -15 34 -9 46 59 119
69 73 83 96 82 130 -1 31 -30 95 -39 86 -3 -3 -20 6 -37 19 -77 58 -151 82
-861 275 -701 191 -796 213 -1020 239 -237 27 -952 44 -1350 31z"/>
<path d="M17632 24433 c-34 -21 -101 -69 -149 -108 -48 -38 -91 -70 -95 -70
-3 0 -16 -12 -28 -27 -12 -16 -27 -28 -34 -28 -6 0 -29 -20 -49 -45 -21 -25
-43 -45 -48 -45 -11 0 -176 -170 -238 -244 -73 -89 -105 -164 -102 -234 2 -38
60 -88 122 -106 120 -35 306 -35 409 -1 25 8 49 15 54 14 5 0 12 3 15 8 3 4
26 22 50 38 59 39 80 62 118 121 75 116 101 204 109 374 7 124 -7 316 -26 366
-13 33 -36 30 -108 -13z"/>
<path d="M25957 22913 c-13 -12 -7 -52 15 -110 12 -32 21 -61 20 -65 -1 -5 3
-8 9 -8 5 0 7 -4 4 -10 -3 -5 -2 -10 3 -10 8 0 36 -50 32 -59 -1 -2 2 -7 7
-10 10 -6 168 -245 165 -248 -1 -1 12 -17 28 -34 16 -18 27 -36 24 -41 -3 -4
-1 -8 4 -8 9 0 77 -90 77 -103 0 -4 7 -12 15 -17 8 -5 15 -13 15 -17 0 -4 15
-24 33 -43 17 -19 32 -40 32 -47 0 -6 6 -16 14 -20 19 -11 216 -260 210 -266
-3 -2 7 -12 21 -21 14 -9 23 -21 20 -26 -3 -5 4 -14 15 -20 11 -6 20 -17 20
-25 0 -8 9 -19 20 -25 11 -6 20 -16 20 -22 0 -6 10 -21 23 -34 57 -59 137
-161 131 -167 -3 -3 4 -10 15 -17 12 -6 21 -15 21 -21 0 -5 18 -28 40 -51 21
-23 37 -45 34 -49 -2 -4 5 -13 16 -19 11 -6 20 -15 20 -21 0 -5 18 -28 40 -51
21 -23 37 -45 34 -49 -2 -4 5 -13 16 -19 11 -6 20 -17 20 -25 0 -8 6 -18 14
-22 20 -11 106 -120 100 -125 -2 -3 7 -13 21 -22 14 -9 23 -21 20 -26 -3 -5 4
-14 15 -20 11 -6 20 -16 20 -22 0 -6 10 -21 23 -34 55 -57 180 -214 170 -214
-4 0 2 -8 13 -18 12 -9 72 -82 133 -162 61 -80 117 -152 124 -160 55 -63 96
-118 91 -122 -2 -3 7 -13 21 -22 14 -9 23 -21 20 -26 -3 -5 4 -14 15 -20 11
-6 20 -16 20 -22 0 -6 9 -20 21 -32 43 -43 89 -101 89 -113 0 -7 9 -17 20 -23
11 -6 18 -15 15 -20 -3 -5 1 -12 9 -17 18 -11 99 -113 89 -113 -5 0 1 -8 13
-18 30 -25 84 -98 78 -105 -3 -3 4 -10 15 -17 12 -6 19 -15 16 -21 -4 -5 -2
-9 2 -9 12 0 109 -132 105 -143 -1 -4 5 -10 13 -13 8 -4 15 -10 15 -14 0 -5
13 -23 30 -41 16 -18 27 -36 24 -40 -2 -4 2 -11 9 -16 20 -12 276 -371 269
-377 -3 -3 -1 -6 5 -6 10 0 78 -89 78 -102 0 -4 7 -13 16 -20 23 -19 79 -94
79 -106 0 -6 6 -15 14 -19 20 -11 106 -120 100 -125 -2 -3 7 -13 21 -22 14 -9
25 -21 25 -26 0 -5 23 -33 50 -62 28 -29 50 -57 50 -63 0 -6 14 -21 30 -33 17
-13 30 -28 30 -35 0 -7 14 -23 30 -35 17 -13 30 -28 30 -35 0 -7 14 -23 30
-35 17 -13 30 -28 30 -34 0 -6 19 -30 43 -54 23 -23 66 -69 96 -101 97 -105
404 -413 411 -413 4 0 21 -15 39 -32 44 -46 61 -60 104 -87 20 -12 37 -26 37
-30 0 -4 6 -8 13 -9 6 -1 24 -4 40 -8 24 -6 29 -2 41 28 40 95 56 419 56 1148
0 311 -3 588 -6 617 -8 61 9 43 -282 310 -35 32 -101 95 -146 141 -45 45 -87
82 -93 82 -7 0 -47 38 -89 85 -43 47 -83 85 -89 85 -5 0 -50 40 -100 89 -84
84 -163 160 -470 455 -66 63 -176 169 -245 235 -69 66 -171 164 -228 218 -57
54 -145 140 -196 191 -51 50 -98 92 -104 92 -6 0 -41 34 -78 75 -37 41 -73 75
-80 75 -7 0 -41 32 -75 70 -35 39 -69 70 -75 70 -7 0 -32 22 -56 50 -24 27
-48 50 -55 50 -6 0 -31 23 -54 50 -23 28 -48 50 -55 50 -7 0 -29 20 -50 45
-20 25 -42 45 -50 45 -7 0 -26 16 -41 35 -15 19 -33 35 -40 35 -7 0 -24 16
-39 35 -14 19 -30 32 -35 30 -4 -3 -18 8 -30 25 -13 16 -29 30 -36 30 -7 0
-20 11 -29 25 -9 14 -22 25 -28 25 -6 0 -19 8 -28 18 -9 9 -29 26 -44 37 -14
11 -36 29 -48 40 -11 11 -23 20 -26 20 -11 1 -150 110 -150 118 0 4 -4 6 -8 3
-5 -3 -23 8 -40 24 -18 16 -32 26 -32 22 0 -4 -7 2 -16 13 -8 11 -17 19 -19
18 -7 -4 -128 76 -137 90 -4 7 -8 8 -8 4 0 -9 -61 31 -72 48 -4 5 -8 7 -8 3 0
-9 -132 70 -141 84 -3 5 -9 9 -13 8 -11 -2 -106 53 -106 62 0 4 -3 7 -7 6 -13
-3 -63 24 -63 34 0 4 -3 7 -7 6 -10 -3 -236 112 -244 124 -3 5 -10 9 -15 9 -5
0 -44 13 -86 29 -79 31 -100 35 -111 23z"/>
<path d="M15030 22830 c-69 -10 -99 -21 -164 -65 -55 -37 -286 -258 -286 -274
0 -6 -20 -27 -45 -48 -25 -20 -45 -43 -45 -49 0 -7 -20 -29 -45 -50 -25 -20
-45 -42 -45 -50 0 -7 -20 -29 -45 -50 -25 -20 -45 -42 -45 -50 0 -7 -20 -29
-45 -50 -25 -20 -45 -41 -45 -46 0 -6 -13 -25 -28 -43 -26 -29 -30 -43 -42
-156 -7 -68 -41 -380 -75 -694 l-63 -570 39 -40 c21 -23 39 -44 39 -48 0 -10
302 -305 355 -347 22 -17 43 -36 46 -42 3 -5 9 -10 12 -9 4 0 26 -9 49 -19 52
-24 78 -25 120 -4 64 30 102 150 148 464 17 113 40 243 51 290 20 84 54 171
67 168 4 -1 14 1 22 4 8 4 44 14 80 23 204 54 1096 396 1403 539 53 24 97 43
97 40 0 -3 7 1 16 8 67 54 80 87 90 228 11 161 -24 389 -76 491 -11 21 -17 39
-13 39 5 0 0 5 -10 11 -9 6 -15 14 -13 18 12 18 -109 99 -186 125 -67 22 -147
33 -368 51 -107 9 -226 20 -265 26 -154 21 -235 59 -235 111 -1 26 -18 51 -40
57 -75 20 -300 26 -410 11z"/>
<path d="M21968 22769 c-48 -5 -84 -17 -125 -39 -32 -18 -70 -39 -85 -47 -56
-30 -84 -117 -99 -318 -21 -285 -6 -2069 22 -2590 7 -115 12 -218 13 -227 0
-20 19 -17 71 10 17 9 34 16 38 17 4 0 12 7 17 15 5 8 13 15 18 15 5 0 21 15
36 33 15 17 33 32 40 32 14 0 106 91 106 105 0 5 9 18 19 30 54 56 69 75 63
75 -4 0 2 7 12 15 11 8 17 15 13 15 -4 0 -1 13 8 30 8 16 15 40 15 55 0 14 5
25 11 25 5 0 8 4 5 9 -6 10 23 40 78 82 21 16 36 29 33 29 -3 0 5 24 18 53 87
191 176 690 225 1266 12 145 60 1029 60 1111 l0 57 -157 55 c-236 83 -327 100
-455 87z"/>
<path d="M23320 22558 c-49 -12 -78 -77 -90 -201 -20 -205 -32 -957 -21 -1327
6 -201 13 -600 17 -887 6 -431 9 -523 20 -523 8 0 14 4 14 9 0 4 21 25 48 45
47 36 131 113 132 121 0 3 10 26 21 52 58 136 111 433 208 1173 32 240 91 694
106 805 7 55 21 159 30 232 l17 132 -158 153 c-204 198 -194 189 -194 183 0
-3 -11 2 -25 11 -35 23 -84 32 -125 22z"/>
<path d="M20122 22254 c2 -10 9 -19 16 -19 7 0 17 -7 22 -15 5 -8 10 -11 10
-7 0 10 159 -99 178 -121 6 -9 12 -12 12 -7 0 5 26 -17 57 -50 32 -33 56 -63
55 -67 -1 -5 2 -8 7 -8 15 0 51 -98 67 -176 31 -165 32 -357 14 -2239 -4 -478
-7 -871 -5 -873 1 -1 17 20 35 48 18 27 36 50 41 50 5 0 8 3 7 8 -3 11 73 122
84 122 5 0 7 4 3 9 -3 6 3 14 12 20 10 5 17 13 17 18 -1 4 15 37 36 73 101
173 138 330 185 775 47 451 50 1815 5 2250 -5 50 -10 97 -10 106 0 37 -24 49
-135 64 -173 23 -398 44 -564 51 -147 7 -153 6 -149 -12z"/>
<path d="M24129 21973 c-7 -80 -1 -351 10 -458 31 -288 72 -1622 56 -1822 l-7
-82 -183 -183 c-101 -101 -215 -216 -252 -256 -37 -40 -96 -101 -130 -136 -35
-35 -63 -68 -63 -74 0 -6 -22 -30 -50 -53 -27 -23 -50 -47 -50 -54 0 -6 -21
-33 -47 -59 -27 -25 -70 -72 -98 -102 -27 -31 -71 -77 -97 -104 -27 -26 -48
-53 -48 -58 0 -6 -22 -30 -50 -53 -27 -23 -50 -48 -50 -55 0 -7 -22 -32 -50
-55 -27 -23 -50 -48 -50 -55 0 -7 -22 -32 -50 -55 -27 -23 -50 -48 -50 -55 0
-7 -22 -32 -50 -55 -27 -23 -50 -48 -50 -55 0 -7 -22 -32 -50 -55 -27 -23 -50
-48 -50 -55 0 -7 -22 -32 -50 -55 -27 -23 -50 -48 -50 -55 0 -7 -22 -32 -50
-55 -27 -23 -50 -48 -50 -55 0 -7 -22 -32 -50 -55 -27 -23 -50 -48 -50 -55 0
-7 -27 -36 -60 -65 -33 -29 -60 -58 -60 -65 0 -7 -27 -37 -60 -66 -33 -29 -60
-58 -60 -65 0 -6 -27 -36 -60 -65 -33 -29 -60 -58 -60 -64 0 -6 -28 -39 -62
-73 -35 -34 -95 -97 -135 -139 -209 -223 -415 -438 -690 -720 -103 -106 -274
-281 -380 -390 -246 -252 -1163 -1169 -1310 -1310 -62 -59 -136 -131 -165
-160 -29 -29 -57 -52 -61 -52 -5 0 -21 -13 -35 -28 -15 -16 -49 -37 -76 -47
-48 -18 -49 -18 -63 1 -12 15 -14 38 -9 105 16 224 93 510 201 749 132 293
160 476 220 1440 42 678 86 1115 120 1195 7 18 23 40 36 49 13 9 24 20 25 24
1 15 46 82 56 82 5 0 7 4 4 8 -3 5 4 19 15 30 11 12 17 22 14 22 -3 0 8 24 24
53 99 175 121 366 121 1035 0 625 -24 989 -80 1189 -48 173 -137 308 -245 370
-195 112 -372 146 -1030 193 -370 27 -412 30 -463 36 -40 5 -43 4 -38 -14 4
-10 0 -106 -9 -213 -8 -107 -24 -336 -35 -509 -22 -332 -42 -467 -85 -573 -29
-71 -112 -207 -126 -207 -6 0 -8 -4 -5 -9 3 -4 -10 -24 -29 -44 -19 -20 -35
-41 -35 -46 0 -6 -9 -15 -20 -21 -11 -6 -20 -17 -20 -25 0 -7 -13 -23 -30 -35
-16 -12 -30 -28 -30 -35 0 -8 -16 -26 -35 -41 -19 -14 -35 -32 -35 -40 0 -7
-25 -34 -55 -60 -30 -26 -55 -53 -55 -60 0 -6 -46 -57 -102 -113 -57 -55 -156
-156 -220 -224 -64 -67 -186 -194 -272 -282 -173 -179 -364 -376 -578 -598
-79 -82 -204 -210 -280 -285 l-136 -137 -6 -85 c-8 -116 -18 -1520 -17 -2445
1 -749 6 -1171 17 -1393 l6 -113 39 -45 c21 -24 41 -44 44 -44 3 0 27 -11 54
-24 27 -14 70 -30 97 -37 75 -18 132 -48 155 -81 32 -45 55 -128 78 -288 48
-319 67 -386 118 -409 36 -17 154 -15 195 2 30 13 98 70 98 82 -1 19 14 55 22
55 5 0 7 4 3 10 -3 5 13 28 35 50 22 22 45 38 50 35 6 -4 10 -1 10 5 0 6 5 8
10 5 6 -3 10 -2 10 3 0 12 92 38 216 61 198 38 242 75 318 277 14 39 35 80 46
91 10 12 17 23 14 26 -10 9 145 156 187 178 44 21 112 77 116 95 2 5 12 34 22
64 24 68 31 120 81 595 88 828 132 1103 199 1233 25 48 90 124 101 117 5 -3
14 4 20 15 6 11 15 18 21 15 5 -4 9 -2 9 4 0 16 38 32 85 36 34 3 47 -1 64
-19 48 -51 81 -215 121 -601 26 -254 54 -481 82 -664 l22 -143 95 6 c53 4 274
15 491 26 1022 51 1116 68 1765 310 160 60 349 134 420 165 72 31 135 57 140
58 6 1 12 5 15 8 10 12 110 59 110 52 0 -5 4 -3 8 2 8 12 164 105 172 102 3 0
18 10 33 23 16 14 31 23 34 22 3 -2 9 1 12 6 7 11 128 102 136 102 3 0 25 18
47 40 23 22 47 40 53 40 6 0 21 14 33 30 13 17 28 30 34 30 6 0 26 18 45 40
19 22 39 40 45 40 6 0 40 30 77 67 36 36 177 177 313 312 230 230 315 316 638
652 69 72 169 174 223 228 53 53 97 102 97 108 0 6 37 47 83 92 45 45 114 116
152 157 39 41 96 101 128 133 31 32 57 63 57 69 0 6 25 32 55 58 30 26 55 53
55 59 0 7 19 31 43 54 23 22 62 64 87 93 25 28 64 70 88 93 23 23 42 47 42 52
0 5 12 22 28 37 15 14 39 41 54 59 31 38 82 97 121 140 15 16 27 33 27 36 0 3
19 26 42 51 23 25 42 47 43 50 1 11 80 110 87 110 4 0 8 6 8 14 0 8 7 16 15
20 8 3 14 9 14 13 -1 4 18 51 44 103 49 103 116 289 147 409 106 421 128 825
105 1991 -8 415 -17 770 -21 789 -6 35 -80 131 -101 131 -6 0 -31 23 -54 50
-23 28 -48 50 -55 50 -7 0 -32 23 -55 50 -23 28 -48 50 -55 50 -7 0 -32 23
-55 50 -23 28 -48 50 -55 50 -7 0 -32 23 -55 50 -23 28 -48 50 -55 50 -7 0
-30 20 -50 45 -21 24 -41 42 -45 39 -4 -2 -18 9 -30 26 -13 16 -27 30 -33 30
-6 0 -19 9 -31 20 -11 12 -54 46 -95 78 -41 31 -77 59 -80 62 -3 3 -9 6 -15 7
-5 1 -17 4 -26 8 -12 4 -16 -4 -20 -42z"/>
<path d="M25975 21970 c-37 -40 -56 -149 -99 -553 -31 -283 -60 -485 -91 -637
-51 -247 -95 -667 -140 -1345 -54 -808 -82 -1164 -111 -1395 -18 -146 -30
-200 -46 -200 -6 0 -9 -3 -5 -6 8 -8 -71 -112 -95 -125 -10 -5 -18 -16 -18
-24 0 -8 -11 -22 -25 -31 -14 -9 -25 -21 -25 -27 0 -11 -13 -26 -94 -108 -25
-26 -46 -51 -46 -57 0 -6 -18 -26 -40 -43 -22 -18 -40 -38 -40 -45 0 -7 -22
-32 -50 -55 -27 -23 -50 -47 -50 -53 0 -10 -22 -35 -154 -167 -31 -30 -56 -60
-56 -66 0 -5 -28 -38 -62 -72 -35 -34 -91 -92 -125 -129 -194 -211 -338 -363
-435 -460 -43 -43 -78 -82 -78 -87 1 -10 -34 -46 -254 -265 -53 -53 -96 -100
-96 -105 0 -6 -40 -50 -89 -100 -50 -49 -140 -142 -200 -205 -327 -342 -918
-940 -930 -940 -5 0 -30 -25 -56 -55 -25 -30 -51 -55 -57 -55 -6 0 -29 -19
-52 -42 -51 -53 -133 -121 -139 -117 -3 2 -13 -6 -23 -18 -11 -13 -75 -47
-144 -77 -69 -29 -263 -119 -432 -199 -170 -80 -308 -142 -308 -139 0 4 -4 2
-8 -4 -9 -14 -282 -145 -282 -136 0 4 -4 2 -8 -4 -10 -15 -379 -193 -386 -186
-3 3 -6 0 -6 -7 0 -7 -4 -9 -10 -6 -5 3 -10 1 -10 -5 0 -6 -4 -9 -9 -6 -5 4
-11 2 -13 -3 -4 -13 -435 -220 -442 -213 -3 3 -6 0 -6 -7 0 -7 -4 -9 -10 -6
-5 3 -10 1 -10 -5 0 -6 -4 -9 -9 -6 -5 4 -11 2 -13 -3 -4 -12 -415 -210 -422
-203 -3 3 -6 0 -6 -7 0 -7 -5 -9 -10 -6 -5 3 -10 1 -10 -5 0 -6 -4 -9 -9 -6
-5 4 -11 2 -13 -3 -4 -12 -415 -210 -422 -203 -3 3 -6 0 -6 -7 0 -7 -4 -9 -10
-6 -5 3 -10 1 -10 -5 0 -6 -4 -9 -9 -6 -5 4 -11 2 -13 -3 -4 -12 -415 -210
-422 -203 -3 3 -6 0 -6 -7 0 -7 -4 -9 -10 -6 -5 3 -10 1 -10 -5 0 -6 -4 -9 -9
-6 -5 4 -11 2 -13 -3 -4 -11 -338 -172 -338 -163 0 4 -4 2 -8 -4 -9 -14 -322
-165 -322 -156 0 4 -4 2 -8 -5 -9 -15 -319 -163 -326 -155 -3 3 -6 0 -6 -7 0
-7 -4 -10 -9 -7 -5 4 -11 2 -13 -3 -4 -11 -278 -142 -278 -133 0 4 -4 2 -8 -4
-9 -14 -202 -105 -202 -96 0 4 -4 2 -8 -4 -9 -14 -202 -105 -202 -96 0 4 -4 2
-8 -4 -4 -6 -137 -73 -297 -149 -379 -180 -435 -205 -435 -197 0 4 -4 2 -8 -4
-8 -12 -721 -347 -739 -347 -7 0 -13 -4 -13 -9 0 -5 -4 -7 -9 -4 -5 4 -11 2
-13 -3 -4 -12 -275 -140 -282 -133 -3 3 -6 0 -6 -7 0 -7 -4 -10 -9 -7 -5 4
-11 2 -13 -3 -5 -13 -365 -191 -372 -184 -3 4 -6 1 -6 -6 0 -7 -4 -9 -10 -6
-5 3 -10 1 -10 -5 0 -6 -4 -8 -10 -5 -5 3 -10 1 -10 -5 0 -6 -4 -8 -10 -5 -5
3 -10 1 -10 -5 0 -6 -4 -8 -10 -5 -5 3 -10 1 -10 -5 0 -6 -4 -9 -9 -6 -5 4
-11 2 -13 -2 -5 -12 -138 -84 -138 -75 0 4 -4 3 -8 -3 -11 -16 -82 -57 -82
-47 0 4 -4 3 -8 -2 -11 -16 -92 -66 -92 -58 0 5 -5 1 -10 -7 -5 -8 -15 -15
-22 -15 -7 0 -14 -14 -16 -32 -4 -37 19 -57 93 -78 135 -40 251 -46 995 -55
1080 -13 1252 -28 1750 -158 154 -40 182 -44 273 -43 61 0 90 5 132 25 29 13
56 22 59 18 3 -3 6 -1 6 5 0 11 100 69 113 65 4 -1 7 2 7 6 0 8 94 64 105 62
3 0 15 9 27 20 20 18 27 21 44 19 4 0 10 3 13 8 10 15 81 55 81 46 0 -4 4 -3
8 3 7 12 149 94 167 97 5 1 12 5 15 8 12 13 120 70 120 62 0 -4 4 -3 8 2 12
18 99 65 106 58 3 -3 6 -1 6 6 0 7 4 10 9 7 5 -4 11 -2 13 2 5 13 135 82 142
75 3 -3 6 -1 6 6 0 7 4 10 9 7 5 -4 11 -2 13 2 5 13 135 82 142 75 3 -3 6 -1
6 6 0 7 4 10 9 7 5 -4 11 -2 13 2 5 13 235 132 242 125 3 -3 6 -1 6 6 0 7 4
10 9 7 5 -4 11 -2 13 2 5 14 294 162 302 155 3 -3 6 -1 6 6 0 7 5 9 10 6 6 -3
10 -1 10 5 0 6 5 8 10 5 6 -3 10 -1 10 5 0 6 4 9 9 6 5 -4 11 -2 13 4 4 12
1496 759 1503 752 3 -3 5 0 5 7 0 7 5 9 10 6 6 -3 10 -1 10 5 0 6 5 8 10 5 6
-3 10 -1 10 5 0 6 4 9 9 6 5 -4 11 -2 13 2 5 14 154 92 161 85 4 -3 7 -1 7 6
0 7 4 10 9 7 5 -4 11 -2 13 2 5 12 138 84 138 75 0 -4 4 -3 8 3 10 15 122 77
122 67 0 -4 4 -3 8 3 7 11 170 104 187 107 6 1 12 4 15 8 13 14 80 50 80 42 0
-4 4 -3 8 3 4 6 75 51 157 99 83 48 174 103 203 121 28 19 52 32 52 29 0 -3 8
2 18 11 32 29 222 164 231 164 5 0 16 11 25 25 9 14 21 23 25 20 5 -2 16 6 25
20 9 14 20 24 24 23 4 -1 27 17 52 40 25 23 48 42 51 42 6 0 54 42 109 96 14
14 29 22 32 19 3 -3 16 8 28 24 12 17 27 31 33 31 7 0 25 16 40 35 15 19 34
35 41 35 7 0 27 18 45 40 17 22 38 40 45 40 7 0 27 18 45 40 17 22 37 40 44
40 7 0 31 23 55 50 24 28 49 50 56 50 7 0 34 25 60 55 26 30 52 55 58 55 6 0
39 28 74 63 34 34 100 97 146 140 432 407 1036 1003 1426 1406 103 107 238
244 300 306 61 61 112 116 112 122 0 5 37 47 83 92 45 45 116 118 157 162 41
44 101 107 133 138 31 32 57 63 57 69 0 6 27 35 60 64 33 29 60 58 60 65 0 6
23 31 50 54 28 23 50 48 50 55 0 7 20 29 45 50 25 20 45 42 45 50 0 7 20 29
45 50 25 20 45 42 45 50 0 7 16 26 35 41 19 15 35 33 35 40 0 7 16 25 35 40
19 15 35 33 35 40 0 7 16 24 35 39 19 14 35 32 35 40 0 7 16 25 35 40 19 14
35 31 35 37 0 12 12 25 74 89 20 20 36 41 36 47 0 6 11 18 25 27 14 9 25 22
25 30 0 7 8 19 18 26 9 7 25 24 33 38 9 14 29 39 45 55 15 17 27 32 26 35 -1
3 5 13 13 23 8 9 13 17 10 17 -3 0 5 21 19 48 31 61 69 182 94 302 38 173 55
380 74 890 5 127 -33 833 -67 1275 -63 791 -102 1036 -201 1262 -12 28 -20 54
-16 57 3 3 0 6 -7 6 -7 0 -9 5 -6 10 3 6 2 10 -3 10 -9 0 -49 81 -44 89 2 2 0
7 -5 10 -16 11 -62 98 -56 105 3 3 2 6 -4 6 -9 0 -29 33 -31 53 -1 4 -8 14
-16 22 -8 8 -31 43 -52 77 -51 86 -150 234 -188 283 -17 21 -31 42 -31 46 0 4
-12 17 -27 29 -16 12 -28 26 -28 31 0 6 -25 34 -55 64 -30 29 -55 51 -55 48 0
-3 -11 2 -24 10 -22 15 -25 15 -41 -3z"/>
<path d="M3630 21590 c-35 -65 39 -287 356 -1064 97 -237 264 -648 370 -913
185 -461 243 -595 286 -655 11 -16 16 -28 12 -28 -4 0 1 -6 12 -14 10 -8 19
-19 19 -24 0 -12 73 -79 140 -127 30 -22 55 -43 55 -48 0 -4 5 -5 10 -2 6 3
13 -1 16 -9 3 -9 10 -14 14 -11 5 3 13 -3 19 -12 6 -10 11 -14 11 -10 0 9 60
-31 72 -48 4 -5 8 -7 8 -3 0 9 112 -60 121 -74 3 -6 10 -9 15 -9 5 1 17 -6 27
-14 9 -8 17 -13 17 -11 0 7 285 -156 292 -168 4 -6 8 -8 8 -3 0 9 112 -53 122
-67 4 -6 8 -8 8 -4 0 9 272 -132 282 -146 4 -6 8 -8 8 -4 0 4 91 -37 203 -91
745 -360 1477 -652 2233 -889 1240 -390 1645 -490 3293 -808 779 -150 1155
-230 1396 -296 126 -35 235 -76 235 -89 0 -5 7 -9 15 -9 8 0 15 -6 15 -14 0
-8 5 -16 12 -18 7 -3 9 -14 4 -31 -5 -20 -14 -28 -39 -32 -35 -7 -188 5 -392
30 -792 96 -765 93 -1140 150 -1312 199 -3316 573 -4570 851 -349 77 -585 136
-1370 339 -1420 368 -1824 451 -1852 378 -8 -20 37 -110 75 -154 16 -19 29
-37 28 -41 0 -3 11 -16 27 -28 15 -12 27 -26 27 -32 0 -6 19 -30 43 -53 81
-81 107 -110 107 -119 0 -8 28 -39 140 -151 28 -27 50 -55 50 -61 0 -5 25 -32
55 -58 30 -26 55 -53 55 -60 0 -7 25 -34 55 -60 30 -26 55 -52 55 -58 0 -7 30
-42 68 -79 37 -37 96 -99 132 -138 36 -39 100 -105 143 -147 42 -42 77 -82 77
-89 0 -6 38 -47 85 -89 47 -43 85 -82 85 -88 0 -7 48 -59 108 -118 59 -59 226
-227 372 -374 258 -260 267 -267 333 -291 526 -192 3047 -279 5067 -175 264
14 585 36 945 65 580 47 1237 93 1700 120 300 17 1177 55 1269 55 l58 0 -5
188 c-3 103 -7 195 -9 205 -11 47 -105 81 -403 142 -260 54 -335 72 -515 126
-227 69 -599 215 -608 240 -2 5 -8 7 -13 3 -5 -3 -9 0 -9 6 0 6 -4 8 -10 5 -5
-3 -10 -1 -10 5 0 6 -4 8 -10 5 -5 -3 -10 -2 -10 3 0 5 -6 9 -13 9 -20 0 -177
94 -177 106 0 5 -3 7 -6 4 -7 -6 -63 28 -75 46 -3 5 -10 9 -15 9 -19 1 -54 22
-54 31 0 6 -3 8 -6 4 -8 -7 -206 91 -216 107 -4 6 -8 8 -8 4 0 -4 -68 25 -152
63 -227 105 -555 246 -908 389 -404 164 -734 305 -1141 490 -400 182 -822 380
-829 389 -3 3 -11 7 -18 9 -28 6 -597 283 -600 293 -2 5 -8 7 -13 3 -5 -3 -9
0 -9 6 0 6 -5 8 -10 5 -5 -3 -10 -1 -10 6 0 7 -3 10 -6 6 -7 -7 -587 281 -592
294 -2 5 -8 7 -13 3 -5 -3 -9 0 -9 6 0 6 -4 8 -10 5 -5 -3 -10 -1 -10 5 0 6
-4 8 -10 5 -5 -3 -10 -1 -10 5 0 6 -4 8 -10 5 -5 -3 -10 -1 -10 5 0 6 -4 8
-10 5 -5 -3 -10 -1 -10 6 0 7 -3 9 -7 6 -7 -8 -314 149 -325 167 -4 6 -8 7 -8
3 0 -10 -193 93 -198 105 -2 4 -8 6 -13 2 -5 -3 -9 0 -9 7 0 7 -3 9 -6 6 -7
-7 -177 82 -182 95 -2 4 -8 6 -13 2 -5 -3 -9 0 -9 7 0 7 -3 9 -7 6 -7 -7 -113
50 -125 67 -4 6 -8 7 -8 3 0 -10 -112 52 -122 67 -4 6 -8 7 -8 3 0 -9 -92 42
-102 58 -4 5 -8 6 -8 2 0 -10 -71 31 -82 47 -4 6 -8 7 -8 3 0 -10 -91 41 -102
57 -4 6 -8 7 -8 3 0 -9 -60 24 -60 33 0 4 -6 7 -12 7 -12 0 -137 70 -148 82
-3 3 -10 7 -16 8 -17 3 -188 104 -195 115 -3 5 -9 9 -13 8 -10 -2 -106 52
-106 60 0 4 -6 7 -12 7 -16 0 -500 290 -509 305 -3 5 -9 9 -13 9 -14 -3 -66
30 -66 41 0 6 -3 9 -6 5 -7 -6 -114 58 -125 75 -3 5 -10 9 -15 9 -11 -1 -118
65 -139 85 -8 9 -15 13 -15 9 0 -7 -92 54 -101 68 -3 5 -8 7 -10 6 -7 -5 -99
53 -99 62 0 5 -3 8 -7 7 -11 -4 -163 94 -163 104 0 5 -4 7 -9 3 -6 -3 -14 2
-19 11 -5 9 -13 16 -18 16 -14 -1 -184 111 -184 121 0 4 -5 5 -10 2 -6 -3 -13
1 -16 9 -3 9 -10 13 -15 10 -5 -3 -12 2 -15 10 -3 9 -10 13 -15 10 -5 -3 -12
2 -15 10 -3 9 -10 13 -15 10 -5 -3 -12 2 -15 10 -3 9 -10 13 -15 10 -5 -3 -12
2 -15 10 -3 9 -10 13 -15 10 -5 -3 -12 2 -15 10 -3 9 -10 13 -15 10 -5 -3 -12
2 -15 10 -3 9 -10 13 -15 10 -5 -3 -12 2 -15 10 -3 9 -10 13 -15 10 -5 -3 -12
2 -15 10 -3 9 -10 13 -15 10 -5 -3 -12 2 -15 10 -3 9 -10 14 -14 11 -5 -3 -13
3 -19 12 -6 10 -11 14 -11 10 0 -9 -220 140 -237 161 -7 9 -13 12 -13 6 0 -5
-6 -2 -13 7 -7 9 -16 17 -22 19 -21 7 -175 113 -175 122 0 4 -4 7 -8 6 -11 -4
-122 73 -122 84 0 4 -3 7 -7 6 -12 -4 -123 74 -123 85 0 6 -3 8 -6 4 -7 -6
-254 158 -266 177 -4 6 -8 8 -8 4 0 -9 -142 81 -152 96 -5 7 -8 7 -8 1 0 -5
-4 -4 -9 4 -7 11 -11 9 -21 -9z"/>
<path d="M27476 19873 c-24 -148 -45 -2356 -46 -4637 0 -1180 1 -1219 18
-1203 10 10 23 17 29 17 5 0 35 29 67 65 31 36 63 65 70 65 8 0 26 16 40 35
15 19 34 35 42 35 8 0 17 6 20 14 10 25 294 217 294 198 0 -4 4 -2 8 4 14 23
172 95 212 97 36 2 39 1 34 -18 -11 -35 -66 -140 -78 -147 -6 -4 -7 -8 -3 -8
8 0 -38 -88 -52 -100 -3 -3 -7 -10 -8 -16 -3 -17 -115 -208 -127 -216 -6 -4
-8 -8 -4 -8 10 0 -80 -153 -95 -162 -7 -4 -9 -8 -5 -8 9 0 -80 -152 -94 -161
-5 -3 -10 -10 -9 -15 0 -5 -17 -38 -37 -74 l-36 -65 -4 -850 c-5 -1085 14
-2113 44 -2320 l5 -40 60 57 c32 31 59 61 59 67 0 6 11 18 25 27 14 9 25 21
25 27 0 6 7 17 16 26 8 9 49 61 90 116 42 55 82 104 90 108 8 5 12 12 9 17 -3
5 4 14 15 20 11 6 18 15 15 20 -3 5 4 14 15 20 11 6 18 15 15 20 -3 5 4 14 15
20 11 6 18 15 16 19 -3 4 9 23 27 42 17 19 32 37 32 41 0 3 16 24 35 45 19 21
34 40 35 43 1 13 88 119 101 124 8 3 13 10 9 15 -3 6 6 18 20 27 13 9 22 20
20 25 -3 4 6 16 20 25 13 9 22 20 20 25 -3 4 8 18 25 30 16 13 30 29 30 36 0
7 14 22 30 35 17 12 30 26 30 32 0 11 14 27 89 103 22 23 41 47 41 52 0 6 16
22 35 37 19 14 35 31 35 37 0 6 10 21 22 34 l22 24 -28 937 c-42 1436 -68
1835 -135 2094 -37 143 -56 283 -81 578 -28 350 -42 667 -44 1030 -2 445 12
628 47 631 110 11 219 -125 336 -418 104 -262 427 -1284 446 -1413 14 -91 85
-287 175 -477 27 -57 46 -103 42 -103 -4 0 -2 -4 3 -8 16 -10 67 -102 58 -102
-4 0 -3 -4 2 -8 6 -4 26 -28 45 -54 19 -26 40 -48 46 -48 22 0 75 32 92 57 9
14 29 39 44 57 44 50 115 144 186 246 36 52 70 98 75 101 5 3 8 10 8 15 -1 5
6 17 14 27 8 9 12 17 9 17 -7 0 48 93 61 102 5 4 7 8 3 8 -3 0 9 35 27 78 75
172 97 368 61 539 -18 89 -74 231 -133 340 -24 45 -45 86 -46 90 0 4 -9 17
-19 27 -9 10 -15 23 -12 28 3 4 1 8 -5 8 -10 0 -42 53 -40 66 0 4 -4 10 -9 13
-15 9 -84 121 -75 121 4 0 3 4 -3 8 -18 12 -84 119 -77 126 4 3 2 6 -4 6 -11
0 -61 77 -61 94 0 5 -4 12 -9 15 -18 12 -52 68 -46 75 3 3 2 6 -4 6 -11 0 -61
77 -61 94 0 5 -7 13 -16 18 -9 5 -14 13 -11 19 4 5 2 9 -3 9 -9 0 -80 108 -80
123 -1 5 -9 15 -19 23 -10 7 -13 14 -8 14 6 0 5 3 -1 8 -16 10 -339 495 -336
505 1 4 -2 7 -7 7 -10 0 -106 142 -103 153 1 4 -2 7 -7 7 -7 0 -63 77 -65 90
-1 2 -13 18 -28 34 -15 16 -25 33 -22 38 3 4 1 8 -3 8 -11 0 -99 122 -95 133
1 4 -2 7 -6 7 -9 0 -69 80 -70 93 0 5 -7 14 -15 20 -19 16 -137 174 -137 184
0 5 -9 14 -20 21 -12 7 -18 17 -15 22 3 5 -4 14 -15 20 -11 6 -18 15 -15 20 3
5 -4 14 -15 20 -11 6 -18 15 -15 20 3 5 -4 14 -15 20 -11 6 -18 15 -15 20 3 5
-4 14 -15 20 -11 6 -18 15 -15 20 3 5 -4 14 -15 20 -11 6 -18 15 -15 20 3 5
-4 14 -15 20 -11 6 -18 15 -15 20 3 5 -4 14 -15 20 -11 6 -18 15 -15 20 3 5
-4 14 -15 20 -11 6 -18 15 -15 21 4 5 2 9 -3 9 -11 0 -78 92 -74 103 1 4 -2 7
-6 7 -11 0 -78 92 -74 103 1 4 -2 7 -6 7 -10 0 -79 94 -72 97 3 1 -2 8 -11 15
-25 20 -218 296 -211 302 3 3 1 6 -5 6 -12 0 -69 81 -65 93 1 4 -2 7 -7 7 -10
0 -63 77 -59 86 2 3 -5 10 -15 15 -9 6 -15 14 -12 19 3 4 -2 11 -11 14 -8 3
-12 10 -9 16 3 5 2 10 -3 10 -8 0 -76 94 -81 112 -1 4 -15 22 -31 39 -16 18
-28 35 -27 38 1 3 -13 22 -31 41 -18 19 -32 39 -32 45 0 16 -120 115 -140 115
-13 0 -20 -10 -24 -37z"/>
<path d="M22591 19818 c-23 -8 -116 -87 -116 -98 0 -12 -99 -139 -112 -144 -7
-3 -13 -12 -13 -19 0 -8 -25 -40 -55 -72 -30 -31 -55 -61 -55 -65 0 -5 -20
-25 -45 -46 -25 -20 -45 -42 -45 -49 0 -7 -27 -36 -60 -65 -33 -29 -60 -58
-60 -65 0 -7 -42 -53 -92 -104 -51 -50 -132 -133 -180 -184 -47 -51 -157 -165
-245 -255 -87 -90 -230 -238 -318 -328 -88 -91 -226 -232 -307 -313 -82 -82
-148 -153 -148 -158 0 -6 -33 -44 -74 -84 -140 -139 -156 -156 -156 -167 0 -6
-12 -20 -27 -32 -16 -12 -28 -25 -28 -28 0 -12 -79 -112 -88 -112 -4 0 -6 -4
-3 -8 3 -5 -3 -18 -14 -29 -10 -12 -16 -24 -13 -27 4 -3 1 -6 -5 -6 -7 0 -11
-3 -10 -7 1 -5 -6 -33 -15 -63 -28 -94 -33 -159 -20 -260 9 -75 16 -98 32
-111 47 -38 339 -36 429 2 25 11 68 36 94 55 26 18 52 34 56 34 5 0 18 14 30
30 13 17 26 30 30 30 4 0 125 118 267 262 143 144 304 305 358 358 53 53 97
102 97 108 0 6 29 37 65 68 36 32 65 63 65 70 0 7 29 39 65 70 36 32 65 63 65
70 0 7 25 34 55 61 30 26 55 53 55 60 0 7 20 29 45 50 25 20 45 43 45 49 0 7
20 29 45 50 25 20 45 42 45 48 0 7 19 31 43 54 23 22 56 58 72 78 17 21 47 54
68 74 20 20 37 42 37 48 0 6 14 20 30 32 17 12 28 25 25 30 -3 5 8 19 25 31
16 13 30 28 30 33 0 6 19 31 42 56 23 25 42 49 43 53 0 5 8 14 17 21 10 7 15
16 12 19 -3 3 4 10 15 17 12 6 19 15 16 19 -2 5 6 20 20 35 13 14 22 26 19 26
-7 0 37 63 49 71 5 3 8 9 8 13 -1 3 10 28 24 55 52 103 45 144 -37 222 -22 21
-37 43 -33 48 3 6 2 11 -4 11 -16 0 -39 95 -51 208 -5 57 -15 112 -20 123 -6
10 -7 19 -3 19 9 0 -27 25 -47 32 -8 3 -26 1 -39 -4z"/>
<path d="M26816 16481 c-28 -31 -80 -175 -202 -560 -63 -201 -158 -501 -211
-666 -174 -550 -405 -1153 -623 -1625 -34 -74 -67 -137 -71 -138 -5 -2 -7 -8
-3 -13 3 -5 0 -9 -6 -9 -6 0 -8 -4 -5 -10 3 -5 1 -10 -5 -10 -6 0 -8 -4 -5
-10 3 -5 1 -10 -5 -10 -6 0 -8 -4 -5 -10 3 -5 1 -10 -5 -10 -6 0 -8 -4 -5 -10
3 -5 1 -10 -5 -10 -6 0 -8 -4 -5 -10 3 -5 1 -10 -5 -10 -6 0 -8 -4 -5 -10 3
-5 1 -10 -6 -10 -7 0 -9 -3 -6 -7 7 -6 -97 -211 -176 -348 -62 -108 -168 -265
-179 -265 -5 0 -7 -4 -3 -9 3 -6 -4 -15 -15 -21 -11 -6 -18 -15 -15 -20 3 -5
-4 -14 -15 -20 -11 -6 -18 -15 -15 -20 3 -5 0 -12 -8 -17 -7 -4 -20 -19 -28
-33 -9 -14 -31 -41 -50 -60 -18 -19 -32 -38 -31 -42 1 -4 -12 -17 -28 -30 -17
-12 -30 -26 -30 -32 0 -11 -20 -33 -97 -111 -24 -23 -43 -47 -43 -53 0 -6 -22
-30 -50 -53 -27 -23 -50 -48 -50 -55 0 -7 -27 -36 -60 -65 -33 -29 -60 -58
-60 -65 0 -7 -31 -41 -70 -75 -38 -35 -70 -68 -70 -74 0 -5 -33 -44 -74 -85
-71 -71 -153 -157 -365 -380 -49 -52 -148 -156 -220 -230 -71 -74 -184 -191
-250 -260 -261 -272 -748 -766 -933 -946 -26 -25 -53 -46 -60 -48 -8 -1 -23
-10 -35 -21 -11 -11 -37 -33 -57 -50 -19 -16 -48 -42 -62 -57 -15 -16 -32 -28
-37 -28 -5 0 -32 -23 -61 -51 -28 -28 -73 -73 -101 -100 -27 -27 -54 -49 -60
-49 -5 0 -43 -36 -83 -80 -40 -44 -78 -80 -84 -80 -6 0 -66 -55 -134 -123 -68
-67 -201 -198 -296 -290 -286 -278 -1125 -1105 -2219 -2191 -949 -940 -3342
-3335 -3366 -3369 -3 -4 -63 -3 1047 -17 536 -6 1243 -10 1570 -7 l595 4 170
167 c94 92 286 280 427 419 141 139 382 375 535 525 352 346 1212 1206 1375
1376 67 70 156 161 196 200 39 39 72 77 72 83 0 7 32 40 70 74 39 35 70 69 70
75 0 7 36 45 80 85 44 39 80 77 80 83 -1 10 39 52 259 271 50 50 91 96 91 102
0 7 29 38 65 70 36 32 65 63 65 70 0 6 14 21 30 33 17 12 30 27 30 33 0 11 8
20 68 81 12 13 22 28 22 34 0 6 9 16 20 22 11 6 20 15 20 20 0 5 44 69 99 142
54 73 115 159 136 191 21 31 42 57 47 57 5 0 7 4 3 9 -3 6 3 14 12 20 10 6 15
11 11 11 -5 0 12 30 35 68 24 37 54 86 67 110 13 23 28 42 34 42 5 0 7 3 3 6
-6 7 52 117 65 122 5 2 6 8 2 13 -3 5 0 9 6 9 6 0 8 5 5 10 -3 6 -1 10 5 10 6
0 8 5 5 10 -3 6 -1 10 6 10 7 0 10 3 6 6 -7 8 31 86 47 96 6 4 8 8 4 8 -4 0
23 62 59 138 292 614 583 1345 709 1780 45 157 88 262 105 262 6 0 8 4 4 9 -3
6 3 14 12 20 10 6 14 11 9 11 -6 0 5 16 24 35 18 19 36 32 41 30 4 -3 9 2 12
10 7 16 96 45 143 45 45 0 137 -22 146 -34 4 -6 8 -7 8 -3 0 4 9 -1 21 -12 43
-40 31 -248 -55 -956 -96 -785 -147 -1271 -166 -1582 -13 -223 -13 -593 0
-593 5 0 20 17 34 38 13 20 70 83 127 140 57 56 154 155 216 220 262 275 354
370 461 476 61 61 112 117 112 123 0 7 36 44 80 84 44 40 80 78 80 85 0 6 35
46 78 88 42 42 113 115 157 162 44 47 115 120 158 162 42 43 77 83 77 89 0 7
29 38 65 70 36 32 65 63 65 70 0 6 27 35 60 64 33 29 60 58 60 65 0 7 16 26
35 41 19 15 35 33 35 39 0 6 9 19 19 28 11 10 25 40 30 68 17 78 58 405 91
723 61 583 138 1055 210 1290 53 171 67 303 80 723 13 455 13 537 1 1447 -25
1865 -57 2669 -108 2785 -9 19 -17 39 -17 43 -1 8 -26 27 -37 27 -3 0 -14 -8
-23 -19z"/>
<path d="M25636 15090 c-29 -27 -57 -50 -63 -50 -5 0 -35 -28 -66 -62 -103
-114 -201 -220 -249 -267 -27 -26 -48 -51 -48 -56 0 -9 -39 -50 -237 -247
-164 -164 -520 -506 -640 -616 -35 -31 -86 -81 -115 -110 -29 -29 -58 -52 -64
-52 -5 0 -32 -25 -58 -55 -26 -30 -53 -55 -60 -55 -8 0 -30 -20 -50 -45 -21
-25 -43 -45 -50 -45 -7 0 -27 -18 -45 -40 -17 -22 -38 -40 -45 -40 -7 0 -27
-18 -45 -40 -17 -22 -38 -40 -45 -40 -7 0 -27 -18 -45 -40 -17 -22 -38 -40
-45 -40 -8 0 -26 -16 -40 -35 -15 -19 -33 -35 -41 -35 -7 0 -23 -13 -35 -30
-12 -16 -26 -30 -32 -30 -6 0 -28 -17 -48 -37 -70 -70 -95 -93 -103 -93 -5 0
-23 -15 -41 -32 -31 -31 -50 -48 -125 -108 -17 -14 -39 -33 -48 -42 -10 -10
-23 -18 -30 -18 -7 0 -17 -9 -23 -20 -6 -11 -15 -20 -21 -20 -5 0 -26 -16 -46
-35 -20 -19 -41 -35 -47 -35 -6 0 -17 -9 -24 -20 -7 -12 -17 -18 -22 -15 -5 3
-12 -1 -17 -8 -9 -15 -106 -83 -111 -79 -2 2 -10 -5 -18 -15 -7 -10 -14 -15
-14 -11 0 3 -12 -4 -27 -17 -69 -58 -239 -190 -245 -190 -4 0 -15 -10 -23 -22
-9 -13 -23 -23 -31 -23 -8 0 -17 -6 -20 -14 -5 -13 -126 -104 -131 -99 -2 2
-14 -9 -29 -22 -15 -14 -30 -22 -34 -20 -4 3 -11 -2 -14 -11 -3 -8 -10 -12
-16 -9 -5 3 -10 2 -10 -4 0 -12 -96 -71 -104 -64 -3 4 -6 1 -6 -5 0 -10 -43
-38 -67 -44 -5 -2 -16 -9 -26 -18 -10 -8 -19 -13 -20 -10 -1 2 -11 -4 -22 -13
-11 -9 -24 -18 -30 -19 -5 -1 -19 -10 -29 -20 -10 -9 -23 -15 -28 -12 -4 3 -8
1 -8 -3 0 -5 -13 -17 -30 -26 -16 -10 -30 -15 -30 -12 0 3 -10 -3 -22 -15 -20
-18 -27 -21 -44 -19 -4 0 -10 -4 -13 -9 -7 -11 -178 -112 -195 -115 -6 -1 -13
-4 -16 -8 -13 -14 -80 -50 -80 -42 0 4 -4 3 -8 -3 -7 -12 -169 -104 -187 -107
-5 -1 -12 -5 -15 -8 -12 -14 -100 -60 -100 -52 0 4 -4 3 -8 -3 -10 -16 -142
-87 -142 -77 0 4 -4 3 -8 -3 -10 -16 -142 -87 -142 -77 0 4 -4 3 -8 -3 -10
-16 -142 -87 -142 -77 0 4 -4 3 -8 -3 -11 -17 -198 -114 -205 -107 -4 3 -7 1
-7 -6 0 -7 -4 -10 -9 -7 -5 4 -11 2 -13 -2 -5 -12 -218 -124 -218 -115 0 4 -4
3 -8 -3 -11 -17 -318 -175 -325 -167 -4 3 -7 1 -7 -6 0 -7 -4 -9 -10 -6 -5 3
-10 1 -10 -5 0 -6 -4 -9 -9 -6 -5 4 -11 2 -13 -2 -5 -13 -375 -202 -382 -195
-3 3 -6 1 -6 -6 0 -7 -4 -9 -10 -6 -5 3 -10 1 -10 -5 0 -6 -4 -8 -10 -5 -5 3
-10 1 -10 -5 0 -6 -4 -9 -9 -6 -5 4 -11 2 -13 -2 -5 -13 -415 -222 -422 -215
-3 3 -6 1 -6 -6 0 -7 -4 -9 -10 -6 -5 3 -10 1 -10 -5 0 -6 -4 -8 -10 -5 -5 3
-10 1 -10 -5 0 -6 -4 -9 -9 -6 -5 4 -11 2 -13 -2 -5 -13 -415 -222 -422 -215
-3 3 -6 1 -6 -6 0 -7 -4 -9 -10 -6 -5 3 -10 1 -10 -5 0 -6 -4 -8 -10 -5 -5 3
-10 1 -10 -5 0 -6 -4 -9 -9 -6 -5 4 -11 2 -13 -2 -5 -13 -355 -192 -362 -185
-3 4 -6 1 -6 -6 0 -7 -4 -10 -9 -7 -5 4 -11 2 -13 -2 -5 -13 -275 -152 -282
-145 -3 3 -6 1 -6 -6 0 -7 -4 -10 -9 -7 -5 4 -11 2 -13 -3 -6 -16 -303 -161
-361 -176 -109 -27 -220 -36 -441 -37 -300 0 -549 -13 -612 -32 -28 -9 -90
-40 -137 -70 -48 -30 -87 -52 -87 -49 0 4 -11 -4 -25 -17 -14 -13 -25 -19 -25
-14 0 5 -4 4 -8 -2 -11 -16 -82 -57 -82 -47 0 4 -4 3 -8 -3 -10 -16 -122 -78
-122 -67 0 4 -4 3 -8 -3 -11 -17 -278 -155 -285 -147 -4 3 -7 1 -7 -6 0 -7 -4
-9 -10 -6 -5 3 -10 1 -10 -5 0 -6 -4 -8 -10 -5 -6 3 -10 1 -10 -5 0 -6 -4 -8
-10 -5 -5 3 -10 1 -10 -5 0 -6 -4 -9 -9 -6 -5 4 -11 2 -13 -3 -5 -13 -125 -71
-132 -64 -3 4 -6 1 -6 -6 0 -7 -4 -9 -10 -6 -5 3 -10 1 -10 -5 0 -6 -4 -8 -10
-5 -5 3 -10 1 -10 -5 0 -6 -4 -8 -10 -5 -5 3 -10 1 -10 -5 0 -6 -4 -8 -10 -5
-5 3 -10 1 -10 -5 0 -6 -4 -9 -9 -6 -5 4 -11 2 -13 -3 -4 -12 -398 -202 -398
-193 0 4 -4 2 -8 -5 -9 -14 -222 -115 -222 -105 0 4 -4 2 -8 -4 -9 -14 -202
-105 -202 -96 0 4 -4 2 -8 -4 -16 -26 -1486 -706 -2427 -1124 -496 -220 -737
-324 -1215 -525 -201 -84 -425 -180 -497 -213 -73 -33 -133 -57 -133 -54 0 4
-4 2 -8 -4 -11 -16 -149 -84 -156 -77 -3 4 -6 1 -6 -6 0 -7 -4 -9 -10 -6 -5 3
-10 2 -10 -2 0 -9 -76 -50 -94 -51 -5 0 -12 -5 -15 -10 -3 -5 -35 -27 -71 -48
-36 -20 -84 -50 -107 -66 -24 -16 -43 -26 -43 -23 0 3 -8 -2 -17 -11 -28 -23
-143 -105 -143 -100 0 3 -14 -8 -32 -24 -17 -16 -35 -27 -40 -24 -4 3 -8 1 -8
-3 0 -9 -104 -93 -115 -93 -3 0 -24 -18 -47 -40 -23 -21 -44 -37 -48 -35 -4 2
-17 -9 -29 -26 -12 -16 -26 -27 -32 -24 -5 4 -12 -1 -15 -9 -3 -8 -31 -36 -62
-61 -88 -70 -119 -97 -153 -132 -18 -18 -37 -33 -43 -33 -6 0 -24 -16 -39 -35
-15 -19 -33 -35 -40 -35 -7 0 -30 -20 -50 -45 -21 -25 -44 -45 -50 -45 -7 0
-30 -20 -50 -45 -21 -25 -43 -45 -49 -45 -6 0 -37 -25 -67 -56 -31 -30 -83
-82 -116 -115 -33 -33 -64 -59 -69 -59 -6 0 -38 -28 -72 -63 -35 -34 -99 -96
-143 -137 -44 -41 -115 -110 -157 -152 -42 -43 -81 -78 -87 -78 -6 0 -51 -41
-101 -91 -233 -232 -262 -260 -272 -259 -6 0 -48 -40 -93 -90 -45 -49 -88 -90
-95 -90 -8 0 -44 -34 -82 -77 -38 -42 -82 -84 -97 -94 -47 -28 -237 -240 -291
-324 -47 -72 -53 -78 -130 -115 -45 -22 -88 -44 -96 -50 -11 -9 83 -10 355 -5
584 9 628 18 832 164 34 24 65 44 70 44 4 0 14 6 21 14 36 36 225 68 482 83
102 5 745 19 1430 30 685 10 1325 21 1422 24 l177 4 195 95 c107 52 197 92
200 89 3 -3 6 0 6 7 0 7 4 9 10 6 5 -3 10 -1 10 5 0 6 4 9 9 6 5 -4 11 -2 13
3 4 13 495 250 502 243 3 -3 6 0 6 7 0 7 5 9 10 6 6 -3 10 -1 10 5 0 6 4 9 9
6 5 -4 11 -2 13 3 4 13 495 250 502 243 3 -3 6 0 6 7 0 7 5 9 10 6 6 -3 10 -1
10 5 0 6 4 9 9 6 5 -4 11 -2 13 3 4 12 515 260 522 253 3 -3 6 0 6 7 0 7 5 9
10 6 6 -3 10 -1 10 5 0 6 5 8 10 5 6 -3 10 -1 10 5 0 6 4 9 9 6 5 -4 11 -2 13
3 4 12 515 260 522 253 3 -3 6 0 6 7 0 7 5 9 10 6 6 -3 10 -1 10 5 0 6 4 9 9
6 5 -4 11 -2 13 3 4 12 596 300 602 293 3 -3 6 0 6 7 0 7 5 9 10 6 6 -3 10 -1
10 5 0 6 5 8 10 5 6 -3 10 -1 10 5 0 6 4 8 10 5 6 -3 10 -1 10 5 0 6 5 8 10 5
6 -3 10 -1 10 5 0 6 4 9 9 6 5 -4 11 -2 13 3 4 13 735 370 742 363 3 -3 6 0 6
7 0 7 4 9 10 6 6 -3 10 -1 10 5 0 6 5 8 10 5 6 -3 10 -1 10 5 0 6 5 8 10 5 6
-3 10 -1 10 5 0 6 5 8 10 5 6 -3 10 -1 10 5 0 6 4 9 9 6 5 -4 11 -2 13 2 4 10
2100 1058 2111 1054 4 -1 7 3 7 9 0 5 5 7 10 4 6 -3 10 -1 10 5 0 6 5 8 10 5
6 -3 10 -1 10 5 0 6 5 8 10 5 6 -3 10 -1 10 5 0 6 5 8 10 5 6 -3 10 -1 10 5 0
6 5 8 10 5 6 -3 10 -1 10 5 0 6 4 9 9 6 5 -4 11 -2 13 2 5 14 395 212 402 205
3 -3 6 -1 6 6 0 7 5 9 10 6 6 -3 10 -1 10 5 0 6 4 9 9 6 5 -4 11 -2 13 2 5 13
335 181 342 175 3 -4 6 -1 6 6 0 7 4 10 9 7 5 -4 11 -2 13 2 5 13 175 102 182
95 3 -3 6 -1 6 6 0 7 4 10 9 7 5 -4 11 -2 13 2 5 13 175 102 182 95 3 -3 6 -1
6 6 0 7 4 10 9 7 5 -4 11 -3 13 2 5 12 158 94 158 85 0 -5 4 -3 8 2 10 16 102
67 102 58 0 -4 4 -3 8 2 10 16 102 67 102 58 0 -4 4 -3 8 3 11 16 82 57 82 47
0 -4 4 -3 8 3 9 13 112 76 129 78 6 1 21 10 33 21 11 10 20 14 20 9 0 -5 4 -4
8 1 12 17 72 57 72 48 0 -4 5 0 11 10 6 9 14 15 19 12 5 -3 14 4 20 15 6 11
16 20 23 20 7 0 23 14 35 30 13 17 29 30 36 30 7 0 32 23 55 50 23 27 48 50
54 50 7 0 34 25 60 55 27 30 54 55 61 55 7 0 43 34 80 75 37 41 72 75 79 75 6
0 55 44 108 98 53 53 160 158 238 232 238 229 436 422 1257 1226 596 585 1564
1558 2091 2103 67 69 151 156 187 192 36 37 66 71 66 77 0 5 19 27 43 47 23
21 49 48 57 60 30 45 143 190 157 202 8 6 14 14 13 18 -1 4 13 23 31 43 18 21
33 40 34 45 0 4 17 25 38 47 20 22 37 43 37 48 0 4 17 26 37 48 20 21 36 42
35 46 -1 4 9 15 23 24 14 9 22 20 20 25 -3 4 6 16 20 25 14 9 25 22 25 30 0 7
9 18 20 24 11 6 20 16 20 22 0 11 11 25 63 78 15 15 27 33 27 39 0 6 11 18 25
27 14 9 25 22 25 28 0 7 20 34 45 59 25 26 45 51 45 55 0 5 20 30 45 55 25 26
45 52 45 57 0 5 6 13 13 17 7 4 20 19 29 33 8 14 28 39 44 55 16 17 29 34 29
38 0 5 8 14 18 21 9 7 17 16 17 20 0 10 89 127 107 143 8 6 15 15 16 20 1 9
130 212 147 231 6 6 8 12 4 12 -3 0 0 10 8 23 27 40 88 188 109 261 16 58 41
241 42 306 0 8 -5 64 -12 124 -12 106 -31 166 -52 166 -6 0 -34 -22 -63 -50z"/>
<path d="M13940 15054 c-602 -15 -972 -45 -1530 -124 -609 -86 -1081 -136
-2275 -240 -1298 -113 -2695 -256 -3350 -341 -126 -17 -266 -34 -310 -40 -125
-16 -257 -45 -306 -67 -24 -12 -40 -21 -35 -22 6 0 5 -5 -1 -11 -16 -16 38
-116 57 -104 4 2 16 -5 26 -16 10 -12 47 -42 81 -67 35 -25 63 -50 63 -55 0
-4 4 -6 8 -3 5 3 21 -7 37 -22 16 -15 32 -27 35 -27 12 0 120 -79 120 -87 0
-5 5 -6 10 -3 6 3 13 -1 16 -9 3 -9 9 -14 13 -11 4 2 20 -8 36 -23 16 -15 32
-27 35 -27 11 0 130 -89 130 -97 0 -5 4 -7 9 -3 6 3 15 -4 21 -15 6 -11 15
-18 19 -15 5 2 24 -11 44 -30 20 -19 41 -35 46 -35 6 0 15 -9 21 -20 6 -11 15
-18 20 -15 5 3 16 -5 25 -17 8 -13 16 -21 18 -19 4 7 87 -51 87 -61 0 -5 4 -7
9 -3 6 3 14 -3 20 -12 6 -10 11 -15 11 -10 0 11 140 -84 140 -96 0 -6 3 -8 6
-4 7 6 123 -68 136 -87 4 -6 8 -7 8 -3 0 9 60 -30 71 -46 3 -5 8 -7 10 -6 7 5
69 -35 69 -44 0 -4 4 -6 8 -3 5 3 20 -5 33 -17 13 -12 25 -20 26 -17 1 3 11
-3 23 -12 11 -10 20 -16 20 -13 0 2 33 -13 73 -35 97 -52 234 -104 332 -126
123 -27 453 -25 645 5 285 44 648 128 1507 352 232 60 758 192 1170 293 786
193 1006 251 1423 371 392 113 1240 345 1537 419 234 59 450 124 521 158 37
17 70 32 73 32 4 1 22 20 42 44 43 51 74 130 87 223 5 38 11 72 12 76 7 30
-17 114 -38 134 -47 44 -116 51 -584 53 -239 2 -491 1 -560 0z"/>
<path d="M14930 14134 c-684 -180 -4510 -1606 -5294 -1973 -58 -27 -107 -46
-110 -43 -3 3 -6 0 -6 -6 0 -10 -38 -28 -52 -24 -5 1 -8 -3 -8 -9 0 -5 -4 -7
-10 -4 -5 3 -10 1 -10 -5 0 -6 -4 -8 -10 -5 -5 3 -10 1 -10 -5 0 -6 -4 -8 -10
-5 -5 3 -10 1 -10 -5 0 -6 -4 -9 -9 -6 -5 4 -11 2 -13 -2 -3 -8 -161 -98 -165
-94 -2 1 -11 -5 -20 -13 -10 -9 -35 -30 -57 -47 l-39 -32 37 -32 c144 -124
1328 -525 1771 -599 55 -9 102 -17 105 -18 19 -4 97 25 233 88 86 40 157 70
157 66 0 -3 4 -1 8 5 10 17 509 264 516 257 3 -4 6 -1 6 6 0 7 4 10 9 7 5 -4
11 -2 13 2 5 14 255 142 262 135 3 -3 6 -1 6 6 0 7 4 10 9 7 5 -4 11 -2 13 2
5 12 198 114 198 105 0 -4 4 -3 8 3 11 17 178 104 186 97 3 -3 6 -1 6 6 0 7 4
10 9 7 5 -4 11 -2 13 2 5 14 274 152 281 145 4 -3 7 -1 7 6 0 7 5 9 10 6 6 -3
10 -1 10 5 0 6 4 9 9 6 5 -4 11 -2 13 3 5 13 245 131 252 124 3 -4 6 -1 6 6 0
7 5 9 10 6 6 -3 10 -1 10 5 0 6 5 8 10 5 6 -3 10 -2 10 3 0 6 35 22 78 37 42
15 163 69 269 120 105 51 194 90 197 87 3 -3 6 0 6 7 0 7 4 10 9 7 5 -4 11 -2
13 2 5 13 175 102 182 95 3 -3 6 -1 6 6 0 7 4 10 9 7 5 -4 11 -3 13 2 5 12 98
64 98 55 0 -4 4 -3 8 3 10 14 122 76 122 67 0 -5 4 -3 8 3 7 11 269 164 286
167 5 1 17 8 25 15 9 7 20 12 25 11 5 0 12 3 15 9 9 14 121 83 121 74 0 -4 4
-2 8 3 4 6 44 37 90 69 123 86 196 157 223 218 23 52 24 58 24 353 -1 306 -7
365 -41 400 -21 20 -42 19 -154 -11z"/>
<path d="M29660 12093 c0 -1148 13 -1583 51 -1785 l11 -57 49 4 c28 2 64 13
86 26 21 13 41 23 45 22 4 -2 12 6 18 17 6 11 15 20 20 20 5 0 38 30 72 67 35
36 76 80 93 97 16 17 29 34 28 37 -1 3 11 20 27 37 16 18 27 32 25 32 -2 0 12
26 31 58 56 92 78 195 103 482 13 145 32 614 32 785 0 251 -24 670 -47 825 -9
60 -37 150 -45 144 -4 -2 -12 4 -18 13 -6 10 -11 15 -11 11 0 -4 -20 1 -45 12
-85 36 -442 120 -512 120 -11 0 -13 -163 -13 -967z"/>
<path d="M15330 12828 c-60 -10 -165 -63 -283 -142 -53 -36 -97 -64 -97 -61 0
2 -14 -9 -32 -25 -17 -16 -35 -27 -39 -24 -4 2 -13 -5 -19 -16 -6 -11 -15 -18
-21 -15 -5 4 -9 2 -9 -2 0 -9 -100 -88 -112 -88 -4 0 -15 -10 -23 -23 -9 -12
-20 -20 -25 -17 -4 3 -15 -6 -24 -20 -9 -14 -23 -25 -31 -25 -7 0 -23 -13 -35
-30 -12 -16 -27 -30 -34 -30 -7 0 -27 -18 -45 -40 -17 -22 -37 -40 -44 -40 -7
0 -36 -27 -65 -60 -29 -33 -57 -60 -62 -60 -12 0 -510 -498 -510 -510 0 -5
-22 -28 -50 -51 -27 -23 -50 -48 -50 -55 0 -7 -22 -32 -50 -56 -27 -24 -50
-48 -50 -54 0 -6 -12 -23 -27 -37 -86 -83 -233 -290 -233 -328 0 -19 4 -21 38
-14 57 10 211 70 375 145 81 38 147 65 147 62 0 -4 4 -2 8 3 10 15 372 197
372 188 0 -4 4 -3 8 3 10 16 142 87 142 77 0 -4 4 -3 8 3 7 11 240 144 257
147 6 1 12 5 15 8 9 10 210 129 210 124 0 -3 9 3 20 13 12 9 22 15 23 12 1 -3
13 5 26 17 13 12 27 20 31 18 5 -3 11 2 14 11 3 8 10 13 15 10 5 -3 12 1 15
10 3 8 10 13 15 10 5 -3 12 1 15 10 3 8 10 13 15 10 5 -3 12 1 15 10 4 9 9 15
12 12 3 -3 15 3 27 13 37 31 152 113 159 114 3 0 16 12 28 28 12 15 28 27 35
27 7 0 23 16 35 35 12 19 30 40 41 45 10 6 18 14 17 18 -1 4 12 34 27 67 26
53 29 71 28 155 0 115 -33 283 -70 358 -14 28 -29 52 -32 52 -3 0 -22 4 -41 8
-19 5 -55 5 -80 0z"/>
<path d="M27625 8884 c-33 -6 -81 -20 -107 -32 -27 -11 -48 -19 -48 -16 0 3
-10 -4 -22 -15 -11 -11 -24 -18 -28 -16 -5 3 -11 -2 -14 -11 -3 -8 -10 -13
-15 -9 -6 3 -15 -4 -21 -15 -6 -11 -15 -18 -19 -15 -5 2 -16 -6 -25 -20 -9
-14 -22 -25 -29 -25 -7 0 -23 -13 -35 -30 -13 -16 -27 -30 -33 -30 -12 0 -378
-367 -436 -437 -43 -51 -43 -52 -51 -160 -13 -175 -14 -810 -3 -1188 17 -530
32 -647 91 -706 32 -32 55 -36 103 -16 18 8 34 14 37 14 3 -1 25 18 50 41 25
23 48 42 51 42 4 0 56 50 115 111 60 61 133 135 162 164 28 29 52 58 52 64 0
5 18 25 40 42 22 18 40 38 40 45 0 7 18 28 40 45 22 18 40 38 40 45 0 7 18 28
40 45 22 18 40 38 40 45 0 7 20 30 45 51 25 20 45 43 45 50 0 6 18 27 40 44
22 18 40 38 40 45 0 7 20 30 45 51 25 20 45 43 45 50 0 6 18 26 39 43 l39 32
1 556 c2 762 -12 982 -68 1054 -36 45 -193 80 -286 62z"/>
<path d="M17810 6368 c-19 -5 -94 -38 -167 -73 -72 -35 -134 -60 -137 -57 -3
3 -6 0 -6 -7 0 -7 -4 -9 -10 -6 -5 3 -10 3 -10 -2 0 -4 -23 -21 -50 -36 -28
-16 -50 -25 -50 -22 0 3 -10 -3 -22 -14 -11 -11 -25 -18 -30 -15 -4 3 -8 1 -8
-3 0 -5 -15 -17 -32 -28 -18 -10 -33 -17 -33 -15 0 2 -29 -22 -63 -55 -77 -72
-95 -108 -75 -147 7 -16 10 -28 7 -28 -8 0 48 -54 56 -55 3 0 17 -8 31 -18 65
-44 126 -37 199 22 22 17 41 31 43 31 8 0 347 343 347 351 0 4 12 17 28 29 15
12 27 25 27 28 0 4 12 23 28 43 55 73 25 105 -73 77z"/>
<path d="M23985 5899 c-309 -13 -479 -46 -627 -120 -32 -16 -59 -28 -61 -27
-2 2 -11 -4 -19 -12 -9 -8 -60 -46 -113 -85 -54 -38 -109 -82 -123 -97 -14
-16 -30 -28 -37 -28 -6 0 -28 -21 -49 -46 -21 -25 -46 -49 -55 -52 -9 -4 -198
-190 -419 -413 l-403 -407 -19 -308 c-44 -721 -48 -1025 -15 -1071 12 -16 29
-18 157 -17 167 0 250 17 376 75 45 21 82 35 82 31 0 -4 4 -2 8 3 11 17 72 57
72 49 0 -4 6 -1 13 7 15 19 90 74 99 74 4 0 15 10 23 23 9 12 20 20 24 18 4
-3 18 8 30 25 12 16 26 27 30 24 5 -2 25 15 46 40 20 25 41 45 47 45 6 0 36
25 67 56 31 31 215 214 409 406 193 193 352 354 352 358 0 4 17 23 38 41 20
18 36 36 35 41 -2 4 10 17 27 29 16 12 27 26 24 30 -3 5 4 14 16 21 11 7 20
19 20 26 0 7 7 15 15 18 8 4 13 10 10 14 -3 5 2 13 11 18 9 5 15 11 13 13 -2
2 9 25 24 50 40 67 73 154 92 239 14 61 18 153 22 498 l5 422 -23 -2 c-13 0
-114 -5 -224 -9z"/>
<path d="M16511 5330 c-18 -4 -43 -13 -55 -19 -11 -6 -66 -28 -121 -50 -123
-48 -299 -125 -512 -224 -90 -42 -163 -73 -163 -69 0 4 -4 2 -8 -4 -10 -15
-239 -123 -246 -116 -3 3 -6 -1 -6 -8 0 -7 -3 -11 -6 -7 -3 3 -11 1 -18 -4
-22 -19 -645 -327 -650 -321 -4 3 -6 0 -6 -7 0 -7 -4 -10 -9 -7 -5 4 -11 2
-13 -2 -5 -13 -215 -122 -222 -115 -3 4 -6 1 -6 -6 0 -7 -4 -10 -9 -7 -5 4
-11 2 -13 -2 -5 -13 -138 -85 -138 -75 0 4 -4 3 -8 -2 -10 -16 -102 -67 -102
-58 0 4 -4 3 -8 -3 -12 -18 -98 -65 -105 -57 -4 3 -7 2 -7 -4 0 -9 -24 -23
-55 -34 -5 -1 -19 -11 -29 -21 -18 -17 -25 -19 -42 -17 -4 0 -10 -4 -13 -9 -9
-14 -141 -93 -141 -84 0 4 -4 2 -8 -4 -8 -12 -104 -79 -114 -79 -3 0 -16 -13
-28 -28 -20 -25 -22 -37 -18 -90 6 -68 52 -171 107 -241 17 -21 31 -43 31 -47
0 -5 28 -27 62 -49 46 -29 72 -40 101 -40 45 0 158 43 342 130 69 32 125 56
125 52 0 -4 4 -2 8 4 10 16 168 94 176 87 3 -4 6 -1 6 6 0 7 5 9 10 6 6 -3 10
-1 10 5 0 6 5 8 10 5 6 -3 10 -1 10 5 0 6 5 8 10 5 6 -3 10 -1 10 5 0 6 5 8
10 5 6 -3 10 -1 10 5 0 6 5 8 10 5 6 -3 10 -1 10 5 0 6 5 8 10 5 6 -3 10 -1
10 5 0 6 4 9 9 6 5 -4 11 -2 13 2 5 13 175 102 182 95 3 -3 6 -1 6 6 0 7 4 10
9 7 5 -4 11 -3 13 2 3 9 244 142 262 145 6 1 13 5 16 8 12 13 120 70 120 62 0
-4 4 -3 8 3 11 16 82 57 82 47 0 -4 4 -3 8 3 11 16 82 57 82 47 0 -4 4 -3 8 3
11 16 82 57 82 47 0 -4 4 -3 8 3 8 12 128 84 146 87 6 1 13 5 16 9 11 14 179
106 184 100 3 -3 6 -1 6 5 0 11 100 69 113 65 4 -1 7 2 7 8 0 10 60 45 73 42
4 -1 7 2 7 8 0 9 54 41 66 39 4 0 11 6 16 15 5 9 13 14 19 11 5 -4 9 -2 9 3 0
9 139 106 153 107 4 0 12 7 17 15 5 8 13 15 17 15 7 0 28 17 78 65 12 11 24
20 28 20 8 0 127 117 127 126 0 3 11 20 25 38 37 49 56 103 56 162 0 67 -20
107 -68 130 -42 20 -148 28 -202 14z"/>
</g>
</svg>
