<?xml version="1.0" standalone="no"?>
<!DOCTYPE svg PUBLIC "-//W3C//DTD SVG 20010904//EN"
 "http://www.w3.org/TR/2001/REC-SVG-20010904/DTD/svg10.dtd">
<svg version="1.0" xmlns="http://www.w3.org/2000/svg"
 width="3473.000000pt" height="3473.000000pt" viewBox="0 0 3473.000000 3473.000000"
 preserveAspectRatio="xMidYMid meet">

<g transform="translate(0.000000,3473.000000) scale(0.100000,-0.100000)"
fill="#000000" stroke="none">
<path d="M20120 31226 c-141 -41 -304 -173 -563 -455 -188 -205 -223 -245
-619 -717 -185 -220 -347 -413 -360 -428 l-23 -28 -54 132 c-63 154 -106 223
-187 303 -159 158 -354 237 -582 237 -183 0 -331 -57 -427 -162 -100 -111
-355 -506 -564 -875 -69 -120 -178 -312 -244 -428 -197 -348 -334 -542 -410
-582 -17 -8 -64 -20 -104 -25 -179 -22 -306 -101 -538 -333 -393 -394 -477
-625 -504 -1385 -11 -294 -26 -412 -80 -628 -31 -124 -114 -401 -155 -517 -13
-38 -70 -200 -125 -360 -136 -388 -213 -642 -255 -835 -32 -150 -46 -278 -57
-539 -20 -487 -12 -469 -398 -883 -134 -145 -268 -307 -307 -374 -60 -102
-104 -477 -140 -1184 -20 -408 -15 -741 14 -877 30 -135 78 -228 165 -316 159
-161 584 -399 862 -483 76 -23 110 -27 215 -28 111 -1 133 2 196 25 186 68
418 293 510 494 21 46 27 80 34 186 18 267 72 352 297 466 202 104 479 206
938 348 116 36 266 103 329 148 17 12 62 50 99 85 102 95 225 142 287 110 30
-17 32 -61 7 -153 -37 -129 -61 -400 -77 -860 -6 -170 -13 -339 -16 -373 l-6
-64 -653 -671 c-866 -892 -983 -1005 -1105 -1068 -83 -43 -194 -25 -310 49
-191 122 -655 554 -1293 1203 -202 206 -501 503 -665 660 -551 531 -736 685
-917 758 -108 44 -424 208 -620 321 -527 305 -725 493 -1308 1238 -446 570
-728 958 -1052 1447 -481 726 -923 1465 -1487 2485 -643 1163 -1181 2199
-1494 2873 -220 476 -316 640 -449 772 -125 125 -227 164 -445 172 -271 10
-356 -20 -513 -180 -239 -244 -259 -299 -238 -654 6 -109 16 -286 22 -393 16
-285 5 -1258 -20 -1787 -28 -592 -41 -693 -89 -693 -10 0 -50 24 -89 53 -108
82 -240 116 -448 117 -187 0 -286 -28 -380 -110 -27 -23 -111 -110 -187 -192
l-136 -150 4 -672 c11 -1615 72 -2791 160 -3070 14 -46 15 -57 3 -82 -18 -37
-72 -71 -184 -119 -49 -21 -108 -49 -130 -63 -209 -130 -345 -380 -333 -611 8
-159 147 -527 576 -1526 149 -346 330 -776 402 -955 163 -404 228 -538 285
-588 54 -47 62 -71 35 -105 -27 -35 -70 -46 -220 -57 -254 -19 -431 -102 -573
-269 -57 -66 -121 -191 -143 -279 -21 -87 -21 -213 0 -287 81 -275 415 -667
1587 -1864 255 -261 546 -558 646 -661 l182 -188 -85 -107 c-47 -60 -99 -131
-115 -159 -124 -214 -81 -496 107 -705 171 -190 1034 -797 1722 -1210 283
-170 440 -245 567 -270 139 -28 255 -41 355 -41 101 0 156 -13 171 -41 14 -26
14 -72 4 -304 -9 -207 -2 -252 50 -356 101 -198 403 -361 1098 -594 450 -150
766 -239 1032 -291 124 -25 164 -28 345 -28 231 -1 291 8 490 74 165 55 303
118 770 351 l416 206 22 -148 c26 -171 51 -261 94 -339 68 -122 181 -242 292
-309 98 -59 168 -81 300 -96 185 -20 215 -40 316 -215 115 -199 252 -288 510
-334 136 -25 284 -35 625 -41 325 -6 628 -20 671 -31 13 -3 24 -10 24 -15 0
-75 -3175 -1551 -5150 -2394 -993 -423 -1108 -481 -1416 -710 -275 -205 -521
-424 -1584 -1410 -976 -906 -1206 -1139 -1374 -1395 -138 -209 -156 -340 -77
-545 67 -174 178 -313 298 -373 182 -92 457 -112 913 -67 522 52 887 162 1082
326 113 95 167 103 658 103 701 -1 1685 -40 2115 -85 341 -35 363 -28 1185
382 469 234 681 335 710 339 45 7 63 -21 79 -127 24 -158 168 -416 378 -680
169 -211 294 -281 518 -290 259 -11 468 55 1015 322 380 185 441 206 509 170
40 -20 141 -178 141 -219 0 -50 165 -166 271 -190 195 -46 710 -68 1559 -68
806 1 1315 17 1810 58 319 26 455 52 531 99 146 93 400 326 919 844 250 250
488 483 529 517 88 76 163 116 194 105 50 -18 55 -83 42 -666 -8 -427 -3 -533
36 -690 49 -192 160 -332 327 -411 111 -53 220 -68 492 -68 328 0 563 34 767
114 140 54 323 212 857 740 529 524 904 932 966 1051 64 123 104 428 146 1108
l27 433 -255 255 -254 254 -299 -16 c-305 -15 -660 -19 -750 -7 -36 5 -51 12
-53 25 -2 11 35 57 105 130 128 132 151 163 346 456 81 123 150 222 152 220 2
-2 22 -51 45 -109 49 -123 73 -168 134 -242 79 -97 227 -193 356 -232 129 -39
294 -39 415 0 223 73 403 224 813 682 129 144 237 261 239 258 2 -2 19 -268
38 -592 48 -804 67 -985 127 -1172 37 -119 109 -225 203 -306 80 -67 122 -88
232 -117 100 -26 297 -36 418 -20 239 32 373 91 548 241 246 211 692 679 895
939 135 173 153 224 191 542 40 331 65 701 77 1169 7 279 -4 449 -35 549 -49
159 -237 353 -441 456 -139 70 -337 114 -515 115 -135 1 -287 17 -332 35 -52
21 -71 60 -51 102 23 49 87 62 351 73 313 13 409 36 550 130 135 91 256 227
597 678 124 164 186 238 192 230 4 -7 8 -44 8 -83 0 -97 19 -384 30 -475 22
-167 79 -272 224 -415 159 -158 253 -200 451 -199 134 0 195 13 335 71 239 98
510 316 683 548 83 112 171 286 197 388 42 169 73 514 90 1001 24 684 -41
1372 -152 1589 -79 157 -225 281 -405 347 -48 17 -169 47 -268 66 -99 19 -204
40 -233 45 l-53 11 141 89 c223 141 255 165 367 272 136 131 214 225 329 398
172 257 294 548 329 784 22 150 22 409 0 540 -39 227 -117 404 -305 690 -141
214 -193 318 -193 382 0 55 15 72 120 127 59 32 89 56 125 101 146 180 198
604 185 1510 -7 428 -16 604 -42 801 -19 141 -39 206 -80 269 -110 164 -448
520 -1013 1063 -447 429 -692 680 -692 707 0 35 86 74 254 115 269 66 452 202
557 415 53 108 72 190 72 305 0 112 -19 197 -68 295 -62 127 -114 176 -637
606 -573 472 -896 709 -1154 848 -166 89 -245 137 -295 181 -33 29 -42 46 -55
100 -26 115 -108 211 -269 316 -182 118 -374 195 -745 300 -337 95 -580 180
-580 202 0 17 232 234 425 397 641 541 883 814 949 1070 57 217 -24 398 -300
666 -142 137 -160 144 -369 143 -162 -1 -188 -3 -823 -70 -415 -43 -624 -54
-637 -34 -8 13 15 54 195 335 81 127 163 262 182 300 74 149 98 266 98 485 0
233 -32 337 -144 473 -146 175 -303 251 -516 251 -232 -1 -482 -70 -1117 -308
-346 -130 -595 -214 -648 -218 l-40 -3 -12 60 c-16 79 -49 349 -68 560 -56
607 -139 803 -394 934 -296 152 -470 146 -781 -27 -125 -70 -276 -176 -578
-409 -340 -261 -506 -372 -528 -351 -16 17 -45 298 -69 663 -43 680 -69 797
-212 970 -93 113 -231 199 -393 245 -94 27 -283 36 -350 16z m200 -708 c64
-145 90 -576 90 -1478 l0 -525 -315 -298 c-518 -490 -715 -723 -715 -845 0
-46 14 -61 64 -69 28 -4 47 1 93 27 363 204 1768 1211 2585 1852 319 251 533
398 557 384 33 -21 85 -606 85 -961 -1 -404 -51 -570 -187 -609 -134 -39 -813
-561 -889 -683 -19 -32 -20 -36 -4 -51 38 -38 170 -11 586 120 521 163 1235
421 2270 821 391 151 718 267 752 267 19 0 20 -4 13 -57 -22 -176 -80 -319
-189 -468 -72 -99 -351 -378 -506 -506 -315 -261 -876 -658 -1250 -884 -177
-106 -433 -233 -557 -275 -51 -17 -170 -47 -265 -66 -214 -43 -226 -47 -693
-182 -567 -165 -722 -224 -882 -339 -170 -121 -333 -292 -333 -349 0 -20 8
-26 53 -38 73 -21 235 -51 465 -86 255 -39 372 -62 561 -111 368 -95 691 -224
716 -287 9 -24 -61 -85 -189 -165 -398 -250 -684 -308 -1976 -397 -239 -16
-475 -35 -524 -40 -240 -29 -273 -56 -279 -232 -4 -135 3 -137 501 -198 268
-33 367 -63 534 -163 139 -83 440 -312 620 -469 70 -62 128 -139 128 -170 0
-29 -34 -55 -81 -62 -153 -21 -654 -48 -1244 -66 -695 -21 -972 -31 -1105 -41
-309 -22 -390 -49 -390 -128 0 -74 66 -104 306 -140 310 -47 372 -80 529 -276
91 -114 155 -168 268 -225 97 -49 139 -89 118 -114 -46 -55 -753 -68 -1526
-26 -390 21 -1000 63 -1006 69 -4 3 -18 141 -33 307 -40 442 -37 741 9 811 23
35 199 116 400 183 218 74 371 148 487 235 151 114 218 216 264 400 55 226
242 671 408 975 93 171 131 225 179 258 51 34 71 84 63 156 -7 64 -19 76 -75
76 -124 -1 -395 -150 -868 -477 -417 -289 -1146 -850 -1356 -1045 -129 -119
-182 -196 -236 -342 -72 -194 -87 -202 -381 -192 -577 18 -1011 95 -1061 188
-16 30 -5 173 20 268 11 41 50 156 86 255 190 518 378 1066 446 1297 97 335
128 518 174 1025 63 689 67 701 286 901 77 70 144 128 148 130 5 1 11 -55 15
-125 19 -336 47 -472 106 -503 48 -26 125 56 186 200 457 1069 1345 2708 1423
2624 21 -22 189 -656 240 -904 16 -80 39 -210 51 -290 25 -163 60 -288 89
-314 19 -18 22 -16 77 35 106 101 360 408 764 924 262 335 388 491 750 925
163 195 340 410 394 478 111 138 127 146 156 80z m-14633 -1518 c406 -896 925
-1892 1706 -3270 756 -1336 1334 -2264 1866 -3000 689 -951 1028 -1363 1377
-1669 165 -145 309 -246 595 -418 316 -189 455 -281 535 -353 64 -58 158 -117
288 -179 149 -72 457 -344 1196 -1056 648 -625 1184 -1191 1253 -1326 35 -68
125 -108 405 -178 l227 -58 3 -331 c1 -183 0 -332 -3 -332 -34 0 -425 119
-510 155 -411 175 -701 436 -1726 1550 -997 1083 -1410 1447 -1558 1371 -17
-9 -33 -27 -37 -41 -32 -128 219 -486 760 -1085 504 -558 1180 -1252 1461
-1502 425 -377 749 -587 1149 -743 295 -115 466 -213 466 -266 0 -11 -11 -31
-25 -44 -21 -22 -33 -25 -97 -25 -128 0 -752 140 -983 220 -128 44 -370 165
-512 257 -162 104 -449 285 -493 310 -19 12 -73 36 -120 54 -47 18 -191 79
-320 137 -129 57 -298 132 -376 167 -77 34 -181 77 -230 95 -153 57 -783 346
-1609 739 -623 297 -943 475 -1645 916 -256 161 -537 336 -625 390 -316 192
-919 603 -1229 837 -483 365 -1176 950 -1876 1582 -392 355 -800 749 -827 801
-57 108 -101 1339 -88 2510 4 380 10 712 13 738 l7 48 135 -233 c213 -367 429
-684 773 -1133 717 -934 1806 -2172 2707 -3075 479 -479 716 -696 1220 -1110
358 -295 456 -377 810 -680 342 -293 607 -505 955 -765 691 -516 1363 -953
1625 -1055 96 -38 219 -22 233 29 6 24 -16 70 -46 94 -12 10 -60 43 -107 74
-321 212 -1638 1304 -2725 2262 -727 640 -1337 1278 -1982 2072 -547 673
-1193 1572 -1603 2229 -137 220 -345 543 -473 734 -206 309 -225 367 -234 706
-9 362 45 3236 63 3319 6 29 0 41 231 -469z m21231 -2276 c40 -11 27 -48 -47
-132 -83 -95 -422 -414 -781 -737 -146 -132 -324 -293 -396 -360 -218 -202
-188 -195 -964 -202 -1257 -11 -2640 64 -2640 142 0 47 433 211 661 250 222
38 351 91 908 372 705 356 664 345 1851 493 311 39 716 93 900 120 184 27 349
51 365 53 50 7 119 7 143 1z m-2853 -2084 c474 -12 769 -25 1035 -46 381 -29
564 -60 856 -143 115 -33 353 -98 529 -146 714 -193 774 -233 620 -421 -26
-33 -54 -74 -62 -93 -13 -31 -13 -39 1 -68 31 -64 147 -115 481 -208 202 -56
358 -129 550 -258 115 -77 143 -98 540 -412 182 -144 400 -314 485 -379 186
-142 212 -166 242 -222 20 -38 21 -45 8 -58 -39 -38 -444 -50 -942 -27 l-237
11 -578 348 c-318 192 -677 405 -798 474 -793 454 -1475 781 -1816 873 -242
65 -328 8 -191 -126 49 -47 72 -84 144 -225 186 -366 414 -941 498 -1259 65
-242 72 -568 14 -616 -26 -21 -86 -13 -154 21 -131 66 -291 188 -730 560 -635
539 -1115 916 -1545 1215 -476 332 -625 448 -625 487 0 62 111 179 316 333
159 120 566 392 596 398 13 3 100 3 193 1 94 -2 350 -9 570 -14z m-6316 -210
c36 -120 34 -463 -4 -570 -53 -150 -216 -289 -410 -350 -89 -28 -247 -31 -314
-6 -92 34 -141 91 -141 164 0 58 58 138 224 309 275 284 567 517 621 497 7 -3
17 -22 24 -44z m8372 -1549 c244 -102 1087 -673 1499 -1014 168 -140 691 -630
1560 -1462 379 -363 760 -723 1005 -949 l150 -139 7 -81 c10 -126 9 -869 -2
-1190 -13 -373 -32 -536 -67 -571 -12 -13 -19 -13 -49 0 -123 51 -465 383
-833 810 -265 306 -407 489 -717 920 -257 358 -519 707 -845 1125 -157 201
-368 473 -469 605 -264 343 -656 837 -850 1070 -92 110 -202 248 -246 307
-165 222 -300 465 -311 558 l-6 53 51 -6 c28 -3 84 -20 123 -36z m-10690 -58
c32 -12 41 -23 51 -55 24 -81 74 -95 538 -153 241 -30 426 -76 478 -120 38
-32 68 -103 97 -232 45 -198 56 -465 23 -538 -22 -48 -159 -118 -363 -185
-201 -66 -430 -153 -638 -241 -358 -153 -611 -249 -654 -249 -44 0 -90 -85
-118 -219 -7 -36 -25 -151 -40 -256 -53 -382 -89 -485 -169 -485 -55 0 -123
54 -355 285 l-225 223 63 728 62 729 28 30 c631 683 626 678 756 728 99 38
382 44 466 10z m6943 -128 c80 -17 110 -34 131 -75 82 -158 80 -679 -6 -1315
-49 -363 -143 -866 -191 -1015 -70 -218 -133 -307 -457 -649 -105 -110 -147
-148 -148 -135 -7 49 -54 1216 -64 1569 -21 755 14 1497 74 1573 16 21 136 52
237 61 119 12 333 4 424 -14z m1023 -145 c53 -24 107 -64 250 -188 61 -53 112
-105 112 -114 1 -10 -26 -289 -59 -620 -32 -332 -80 -812 -105 -1068 -25 -256
-54 -506 -64 -555 -33 -162 -87 -237 -257 -363 -39 -28 -74 -52 -78 -52 -9 0
-7 1366 4 2010 10 654 23 817 71 912 31 61 58 69 126 38z m-2857 -310 c315
-17 388 -23 400 -30 23 -14 51 -536 57 -1062 5 -505 -4 -882 -32 -1283 -34
-471 -61 -632 -135 -782 -32 -65 -243 -378 -282 -418 -6 -6 -7 39 -3 130 9
212 75 2822 74 2960 l0 120 -57 45 c-113 90 -269 203 -340 247 -40 25 -71 51
-69 57 8 24 142 29 387 16z m3783 -332 c200 -176 447 -400 635 -576 l142 -134
0 -827 c0 -838 -8 -1162 -35 -1486 -38 -441 -111 -776 -215 -982 -69 -135
-423 -531 -1324 -1478 -440 -462 -1382 -1410 -1534 -1543 -98 -85 -111 -93
-235 -143 -73 -28 -242 -99 -376 -156 -445 -190 -746 -299 -1001 -363 -263
-66 -682 -127 -1050 -154 -345 -25 -760 -50 -764 -45 -7 7 -65 494 -75 634 -6
72 -13 222 -16 335 -9 316 -31 419 -97 475 -62 53 -144 17 -277 -120 -114
-118 -183 -223 -217 -329 -22 -70 -27 -109 -35 -286 -18 -402 -30 -608 -50
-845 -33 -395 -56 -511 -112 -563 -12 -11 -63 -38 -113 -60 -51 -21 -104 -49
-119 -61 -64 -49 -99 -122 -126 -256 -36 -185 -71 -214 -277 -235 -320 -32
-347 -46 -373 -188 -22 -117 -62 -147 -197 -147 -81 0 -85 1 -112 31 -36 41
-45 97 -65 389 -20 302 -31 339 -104 368 -21 9 -111 23 -201 32 -91 9 -166 18
-169 20 -2 3 -4 856 -5 1897 -1 1397 2 1944 11 2087 l13 193 277 285 c822 844
1345 1399 1686 1791 l177 203 0 624 0 625 30 0 c54 0 712 -50 870 -66 279 -28
424 -60 544 -120 93 -47 146 -91 220 -185 123 -156 165 -266 188 -496 17 -178
17 -1244 0 -1443 -36 -408 -97 -593 -249 -748 -66 -69 -73 -80 -87 -141 -38
-167 -58 -414 -81 -991 -41 -1043 -63 -1193 -225 -1555 -111 -246 -160 -424
-160 -574 0 -36 7 -122 15 -191 8 -69 15 -126 15 -127 0 -5 1682 1689 2181
2197 766 779 744 755 1384 1465 901 998 1243 1365 1478 1589 l138 132 -45
1124 c-25 619 -48 1155 -51 1193 -3 37 -2 67 1 67 3 0 78 -64 167 -142z m1697
62 c180 -92 676 -941 745 -1277 32 -155 71 -576 100 -1063 45 -776 50 -1408
16 -1895 -12 -170 -24 -329 -27 -352 -4 -37 -39 -82 -330 -425 -626 -736 -915
-1048 -1834 -1971 -1195 -1203 -2047 -1997 -2388 -2225 -355 -238 -1108 -646
-2427 -1312 -1308 -661 -1465 -743 -2025 -1068 -223 -129 -414 -239 -425 -244
-15 -7 -83 12 -275 76 -462 153 -596 167 -1802 186 -917 14 -1125 32 -1116 94
4 29 75 64 1393 696 1504 722 1776 854 4620 2245 715 350 1512 735 1520 735 3
0 77 36 165 80 405 202 509 297 1730 1590 566 599 806 851 1166 1225 127 132
347 363 490 513 229 243 260 279 267 315 4 23 28 384 52 802 85 1429 131 1934
195 2130 44 133 62 308 80 770 12 310 26 395 62 395 5 0 26 -9 48 -20z
m-22302 -404 c26 -13 135 -89 242 -168 322 -238 646 -460 1260 -865 702 -462
1293 -835 1640 -1035 973 -561 2918 -1532 4175 -2085 532 -234 1545 -652 1753
-723 94 -33 184 -82 477 -262 317 -195 586 -321 930 -437 286 -96 476 -136
713 -151 81 -4 159 -14 174 -20 43 -20 50 -51 55 -262 l6 -198 -104 0 c-193 0
-1422 -30 -1664 -40 -680 -29 -1121 -57 -1660 -105 -649 -58 -1528 -85 -2765
-85 -1199 0 -1923 29 -2380 96 -286 41 -482 124 -703 295 -232 179 -1486 1502
-1786 1884 -64 81 -111 162 -111 190 0 9 7 18 15 21 35 14 606 -121 1400 -331
710 -187 1329 -337 2035 -494 2264 -502 4649 -913 5495 -947 234 -9 395 17
411 68 14 46 -98 118 -276 176 -141 47 -259 73 -750 167 -245 46 -535 103
-645 125 -110 23 -317 61 -460 86 -1026 177 -2125 453 -2860 719 -126 45 -383
134 -570 195 -578 192 -1032 385 -1790 760 -660 327 -1115 592 -1252 730 -76
76 -118 158 -202 395 -60 170 -213 549 -297 739 -107 238 -185 421 -195 460
-16 61 -95 253 -223 550 -230 530 -247 632 -88 552z m23905 -1742 c26 -32 100
-135 164 -229 287 -418 595 -848 908 -1265 470 -625 836 -1166 1382 -2040 191
-305 264 -437 299 -540 30 -86 27 -353 -5 -475 -85 -328 -362 -799 -514 -877
-39 -19 -40 -19 -58 -1 -71 71 -202 432 -519 1423 -221 691 -362 1031 -475
1147 -40 42 -58 53 -83 53 -42 0 -68 -30 -82 -94 -22 -101 -32 -450 -26 -876
8 -577 29 -876 87 -1220 78 -463 128 -1022 159 -1795 32 -773 48 -1256 43
-1276 -4 -13 -81 -109 -172 -214 -193 -222 -341 -406 -569 -710 -162 -214
-328 -421 -371 -459 -27 -24 -32 -19 -42 45 -26 161 -33 577 -34 1824 l0 1300
200 330 c280 463 361 628 340 695 -14 44 -118 10 -268 -89 -161 -107 -242
-175 -500 -420 l-59 -56 5 2395 c5 2217 15 3164 36 3382 5 53 15 98 25 113
l17 26 32 -18 c18 -11 54 -46 80 -79z m-4968 -38 c30 -30 43 -77 50 -186 8
-104 46 -192 105 -243 53 -45 63 -74 46 -132 -17 -54 -114 -217 -190 -319
-283 -376 -1556 -1738 -1776 -1900 -145 -107 -265 -138 -454 -117 -134 16
-148 30 -148 150 1 118 25 213 82 326 100 199 261 384 960 1106 549 567 942
988 1075 1154 142 176 199 212 250 161z m4206 -3364 c27 -79 36 -146 53 -402
63 -920 116 -3352 87 -3925 -14 -274 -30 -374 -87 -545 -54 -161 -83 -283
-123 -530 -55 -338 -93 -718 -111 -1130 -6 -135 -16 -265 -21 -289 -14 -63
-78 -182 -149 -276 -237 -313 -1487 -1628 -1695 -1782 -116 -87 -145 -82 -145
26 0 126 45 577 150 1501 101 896 139 1385 111 1438 -18 34 -80 45 -231 40
-250 -9 -273 -34 -380 -418 -117 -420 -211 -702 -350 -1050 -327 -816 -749
-1576 -1131 -2035 -42 -49 -188 -207 -325 -350 -137 -143 -377 -395 -533 -560
-287 -303 -2148 -2168 -2495 -2500 l-189 -180 -1623 -3 c-893 -1 -1624 1
-1624 5 0 21 2461 2466 4255 4228 861 845 1306 1277 1670 1620 1123 1058 2448
2411 3141 3205 287 329 401 481 442 587 36 95 145 336 282 624 196 412 363
846 626 1624 165 486 343 1091 344 1168 1 20 2 20 16 -7 9 -16 25 -53 35 -84z
m-1117 -1460 c-1 -271 -47 -516 -128 -684 -81 -168 -179 -301 -604 -821 -218
-266 -343 -424 -594 -747 -150 -193 -719 -779 -1895 -1950 -1298 -1293 -2278
-2242 -2613 -2531 -140 -120 -420 -278 -1020 -576 -157 -78 -400 -204 -540
-281 -963 -526 -2721 -1401 -5895 -2932 -385 -186 -803 -389 -930 -450 l-230
-112 -1470 11 c-808 6 -1550 11 -1647 11 l-177 0 -125 -105 c-229 -192 -289
-219 -520 -235 -78 -5 -287 -10 -466 -9 l-325 0 125 121 c69 66 332 315 585
552 1557 1460 2059 1900 2382 2083 59 34 207 102 328 152 210 85 342 142 827
354 120 53 257 110 305 128 216 79 1737 773 3208 1464 942 442 1443 698 1794
913 169 104 219 112 699 112 549 0 602 10 852 164 175 108 721 397 1615 856
1462 750 2190 1149 2805 1538 324 205 521 345 829 590 820 652 1690 1442 2277
2067 298 318 394 414 468 469 45 34 50 36 65 21 13 -13 16 -42 15 -173z
m-10677 -129 c-4 -137 -10 -261 -15 -278 -7 -24 -16 -32 -48 -39 -323 -75
-1757 -448 -2174 -566 -368 -103 -1160 -313 -1505 -399 -520 -128 -1258 -313
-1640 -410 -711 -182 -1223 -281 -1446 -281 -200 0 -333 68 -996 511 -714 477
-1004 682 -1093 774 -44 45 -44 47 -25 61 31 23 135 52 247 68 373 55 2291
241 3768 366 872 73 1345 123 1895 200 1072 150 1890 215 2964 238 l74 2 -6
-247z m51 -958 c18 -424 2 -523 -100 -605 -102 -82 -458 -274 -1698 -915
-1209 -625 -1716 -892 -1831 -961 -63 -38 -254 -122 -352 -155 -72 -24 -196
-29 -292 -10 -211 42 -931 274 -1365 440 -175 67 -380 167 -380 186 0 111
2150 984 4155 1685 490 172 1839 618 1846 611 3 -3 11 -127 17 -276z m14686
-861 c291 -53 439 -96 468 -135 97 -129 103 -1586 9 -2046 -26 -128 -80 -221
-219 -381 -110 -126 -267 -227 -317 -204 -40 19 -57 121 -76 472 -12 230 -25
2320 -14 2320 4 0 71 -12 149 -26z m-14380 -183 c26 -28 53 -107 65 -191 18
-121 29 -320 22 -389 -7 -61 -9 -66 -58 -111 -162 -149 -938 -600 -1566 -911
-319 -157 -537 -244 -537 -212 0 54 349 473 614 739 424 424 1014 901 1300
1051 89 47 134 53 160 24z m12429 -3970 c66 -26 81 -47 103 -149 25 -119 43
-962 27 -1334 l-6 -158 -270 -302 c-413 -464 -525 -584 -617 -665 -177 -156
-264 -162 -304 -22 -36 123 -38 180 -42 1059 l-5 875 243 245 c313 315 428
408 571 461 72 27 217 22 300 -10z m-9943 -2515 c0 -56 -381 -462 -518 -551
-78 -52 -162 -31 -262 64 -46 43 -50 68 -17 99 86 81 702 396 785 401 6 1 12
-5 12 -13z m6330 -653 c-1 -371 -16 -647 -40 -738 -61 -236 -201 -413 -745
-938 -490 -474 -668 -623 -860 -717 -117 -57 -184 -76 -326 -91 -123 -12 -200
-5 -224 21 -25 28 -37 141 -30 290 11 235 54 973 61 1030 l6 55 396 400 c578
584 675 671 860 768 188 98 366 128 810 135 l92 2 0 -217z m-7501 -370 c12
-10 26 -35 31 -56 12 -53 -7 -171 -36 -228 -81 -162 -452 -417 -1149 -794
-219 -118 -1690 -865 -1702 -865 -10 1 -169 216 -212 286 -68 112 -64 202 12
278 62 61 165 117 544 295 389 182 942 448 1485 712 637 310 824 387 949 388
40 1 63 -4 78 -16z"/>
</g>
</svg>
